<svg width="466" height="72" viewBox="0 0 466 72" fill="none" xmlns="http://www.w3.org/2000/svg">
<path d="M0.0112305 71.346C1.03522 70.8204 1.48832 69.5789 1.48832 68.5187V42.4658C1.48832 41.3602 1.02616 40.155 0.0112305 39.6022H12.426C17.9628 39.6022 23.3637 41.8677 23.3637 48.1566C23.3637 51.4914 20.4548 54.1193 17.3285 54.7084C21.8413 54.6631 26.2001 57.4269 26.2001 62.4019C26.2001 69.5155 18.7331 71.3369 13.4862 71.3369H0.0112305V71.346ZM10.0609 42.348C9.48089 42.348 9.08217 42.348 8.02193 42.4748V53.5847H9.28153C13.0875 53.5847 16.7666 52.4066 16.7666 48.0026C16.7666 43.5985 13.8215 42.348 10.0609 42.348ZM10.8583 56.4392C9.95211 56.4392 9.13654 56.4392 8.03099 56.5207V68.2559C9.4084 68.5277 10.8945 68.6093 12.272 68.6093C15.4617 68.6093 18.6968 67.1866 18.6968 62.3203C18.6968 57.4541 14.8636 56.4392 10.8674 56.4392H10.8583ZM38.4789 42.348C37.908 42.348 37.4096 42.4386 36.8478 42.5201V53.4941C37.3643 53.5303 37.8355 53.5847 38.352 53.5847C41.9224 53.5847 44.5685 51.6092 44.5685 47.7307C44.5685 43.8522 41.9677 42.348 38.4789 42.348ZM54.4822 71.5363C53.2679 71.5363 51.9267 71.5816 50.7577 71.2372C48.601 70.5938 45.6106 65.7276 44.4326 63.8246C42.5839 60.7164 40.989 56.4482 36.8568 56.4029V68.5277C36.8568 69.588 37.3371 70.8748 38.3611 71.355H28.828C29.8248 70.8294 30.3051 69.6423 30.3051 68.5277V42.4748C30.3051 41.3693 29.8248 40.164 28.828 39.6113H40.3003C45.2934 39.6113 51.5371 41.5233 51.5371 47.5223C51.5371 52.5607 47.3686 55.1343 42.7289 55.1343C49.335 55.1705 53.2135 70.6663 60.5083 70.7116C58.551 71.2916 56.512 71.5272 54.4731 71.5272L54.4822 71.5363ZM60.9977 71.346C61.7861 70.9835 62.6107 69.9504 62.6107 68.5187V42.4658C62.6107 41.0159 61.7861 40.0009 60.9977 39.6022H70.7664C69.9236 39.9919 69.1624 41.0159 69.1624 42.4658V68.5187C69.1624 69.9414 69.9236 70.9835 70.7664 71.346H60.9977ZM82.1843 71.346C83.2265 70.8657 83.743 69.6333 83.743 68.5187V43.2451H76.7291C75.107 43.2451 73.1859 43.4444 71.7904 44.2691L73.9743 39.6022H97.2361C99.121 39.6022 101.051 39.5569 102.873 39.1672C101.985 41.5596 99.3475 43.3266 97.8251 43.3266C95.9765 43.2813 92.9227 43.1635 90.2857 43.1635V68.5096C90.2857 69.6242 90.8384 70.8566 91.8624 71.3369H82.1753L82.1843 71.346ZM104.042 71.346C104.821 70.9835 105.636 69.9504 105.636 68.5187V42.4658C105.636 41.0159 104.821 40.0009 104.042 39.6022H113.81C112.977 39.9919 112.188 41.0159 112.188 42.4658V68.5187C112.188 69.9414 112.986 70.9835 113.81 71.346H104.042ZM132.822 64.169C132.822 58.1247 118.586 56.7563 118.586 47.1145C118.586 41.1427 124.268 39.1854 129.261 39.1854C131.49 39.1854 134.716 39.4935 136.755 40.4268L137.108 46.3624C135.858 43.7435 132.722 41.8405 129.805 41.8405C127.503 41.8405 125.092 42.9823 125.092 45.6102C125.092 51.8811 139.573 53.4125 139.573 62.5469C139.573 69.1802 133.774 71.9259 127.929 71.9259C124.866 71.9259 120.706 71.3369 118.124 69.5698C117.97 68.5096 117.897 67.395 117.897 66.3166C117.897 65.0208 118.006 63.7249 118.205 62.4472C119.818 66.1173 123.144 68.9899 127.312 68.9899C130.475 68.9899 132.831 67.6125 132.831 64.169H132.822ZM163.324 71.346C164.013 71.0379 164.747 69.9504 164.747 68.5187V56.711C163.053 56.5207 160.678 56.4392 158.014 56.4392C155.35 56.4392 152.921 56.5207 151.181 56.711V68.5187C151.181 69.9414 151.897 70.9835 152.595 71.346H143.189C143.887 71.0379 144.63 69.9504 144.63 68.5187V42.4658C144.63 41.0159 143.887 39.9556 143.189 39.6022H152.595C151.897 39.9556 151.181 41.0159 151.181 42.4658V53.1407C152.921 53.3219 155.268 53.4125 158.014 53.4125C160.76 53.4125 163.053 53.2947 164.747 53.1407V42.4658C164.747 41.0159 164.013 39.9556 163.324 39.6022H172.713C172.006 39.9556 171.317 41.0159 171.317 42.4658V68.5187C171.317 69.9414 172.015 70.9835 172.713 71.346H163.324Z" fill="white"/>
<path d="M207.574 71.3464C207.882 71.0383 208.153 70.8027 208.153 70.2408C208.153 70.0505 208.081 69.7334 207.845 69.1444C207.845 69.1444 205.236 62.0489 204.937 61.2243C202.979 60.9796 200.94 60.9796 198.938 60.9796C196.935 60.9796 195.113 61.0249 193.238 61.2243C192.975 61.9311 190.175 68.9903 190.175 68.9903C189.794 69.9418 189.667 70.268 189.667 70.4765C189.667 70.9477 190.075 71.1742 190.419 71.3464H184.031C184.973 70.8661 185.789 69.8874 186.197 68.9088L196.699 41.8137C196.745 41.705 196.763 41.5781 196.763 41.4241C196.763 40.681 196.264 39.9651 195.594 39.6208H203.831L214.506 68.8906C214.941 70.0687 215.874 70.9205 216.654 71.3555H207.564L207.574 71.3464ZM199.282 45.656L194.47 58.0164C195.902 58.1704 197.397 58.2067 198.847 58.2067C200.514 58.2067 202.155 58.2067 203.777 58.0164L199.291 45.656H199.282ZM218.285 71.3464C219.073 70.9839 219.889 69.9509 219.889 68.5191V42.4662C219.889 41.0163 219.073 40.0014 218.285 39.6026H228.044C227.211 39.9923 226.44 41.0163 226.44 42.4662V68.5191C226.44 69.9418 227.211 70.9839 228.044 71.3464H218.285ZM242.888 42.3484C242.362 42.3484 241.855 42.439 241.311 42.5206V53.4945C241.818 53.5307 242.281 53.5851 242.779 53.5851C246.358 53.5851 248.995 51.6096 248.995 47.7311C248.995 43.8527 246.386 42.3484 242.888 42.3484ZM259.688 71.5367C258.474 71.5367 257.16 71.582 255.973 71.2377C253.807 70.5943 250.835 65.728 249.648 63.825C247.808 60.7168 245.416 56.4034 241.311 56.4034V68.5281C241.311 69.5884 241.773 70.8752 242.779 71.3555H233.255C234.279 70.8299 234.759 69.6428 234.759 68.5281V42.4753C234.759 41.3697 234.288 40.1645 233.255 39.6117H244.754C249.738 39.6117 255.973 41.5238 255.973 47.5227C255.973 52.5611 251.424 55.1347 247.98 55.1347C254.831 55.5334 258.954 70.7121 265.751 70.7121C263.784 71.292 261.745 71.5276 259.688 71.5276V71.5367ZM299.28 42.7109L289.638 71.3464C288.84 71.3464 288.061 71.0745 287.617 70.7664C286.666 69.8512 285.17 66.0089 284.627 64.5953L280.268 53.5851L273.988 71.3555H270.998L260.205 42.6474C259.743 41.4241 258.945 40.2551 257.776 39.6208H267.155C266.766 39.9289 266.485 40.2732 266.485 40.9438C266.485 41.261 266.648 41.705 266.757 42.0493L273.789 61.043L281.274 39.6208L289.52 60.2728L295.764 41.5781C295.918 41.0707 296.008 40.8804 296.008 40.5632C296.008 40.1735 295.836 39.9289 295.447 39.6208H301.654C300.503 40.2279 299.678 41.5328 299.28 42.7199V42.7109ZM310.816 45.656L306.004 58.0164C307.454 58.1704 308.94 58.2067 310.39 58.2067C312.039 58.2067 313.697 58.2067 315.31 58.0164L310.816 45.656ZM319.098 71.3464C319.424 71.0383 319.678 70.8027 319.678 70.2408C319.678 70.0505 319.587 69.7334 319.388 69.1444C319.388 69.1444 316.796 62.0489 316.479 61.2243C314.504 60.9796 312.465 60.9796 310.471 60.9796C308.595 60.9796 306.665 61.0249 304.78 61.2243C304.508 61.9311 301.736 68.9903 301.736 68.9903C301.337 69.9418 301.228 70.268 301.228 70.4765C301.228 70.9477 301.618 71.1742 301.953 71.3464H295.564C296.507 70.8661 297.322 69.8874 297.721 68.9088L308.26 41.8137C308.287 41.705 308.324 41.5781 308.324 41.4241C308.324 40.681 307.825 39.9651 307.145 39.6208H315.383L326.058 68.8906C326.502 70.0687 327.444 70.9205 328.223 71.3555H319.116L319.098 71.3464ZM347.77 42.9465L340.258 56.1315V68.5281C340.258 69.534 340.674 70.8752 341.671 71.3555H332.319C333.271 70.8299 333.715 69.5068 333.715 68.5281V56.0953L327.181 45.6288C326.592 44.6501 323.874 40.0829 320.548 40.0829C321.454 39.7386 324.2 39.213 326.039 39.213C329.111 39.213 330.634 39.4939 332.519 42.439L338.563 52.0265C339.07 51.084 343.855 42.7652 343.855 42.7652C344.435 41.7503 344.825 41.0344 344.825 40.681C344.825 40.2279 344.625 39.9289 344.163 39.6208H350.905C349.582 40.2551 348.486 41.705 347.761 42.9555L347.77 42.9465ZM365.368 64.1694C365.368 58.1251 351.132 56.7568 351.132 47.1149C351.132 41.1432 356.795 39.1858 361.798 39.1858C364.036 39.1858 367.244 39.4939 369.292 40.4273L369.645 46.3628C368.377 43.7439 365.25 41.8409 362.341 41.8409C360.031 41.8409 357.638 42.9827 357.638 45.6107C357.638 51.8815 372.119 53.4129 372.119 62.5473C372.119 69.1806 366.365 71.9264 360.475 71.9264C357.412 71.9264 353.243 71.3373 350.661 69.5703C350.488 68.51 350.416 67.3954 350.416 66.3171C350.416 65.0212 350.543 63.7254 350.733 62.4476C352.346 66.1177 355.69 68.9903 359.849 68.9903C363.021 68.9903 365.386 67.6129 365.386 64.1694H365.368Z" fill="white"/>
<path d="M452.969 17.4008C447.658 22.7111 436.077 27.2511 430.387 29.3806C422.639 32.3076 419.186 33.3316 414.818 34.7452C409.907 36.3492 400.047 39.3124 400.047 39.3124C420.455 45.4111 434.818 47.2416 434.818 47.2416C434.818 47.2416 441.524 45.1755 452.117 39.5118C457.871 36.5848 460.68 34.6274 462.719 32.7426C463.444 32.0629 465.374 30.0693 465.873 27.4867C465.9 27.2964 465.982 26.807 465.982 26.3268C465.982 26.3268 465.982 25.9824 465.963 25.6924C465.945 25.3481 465.891 25.1397 465.891 25.1397C465.891 25.1397 465.791 24.5053 465.619 24.0885C465.456 23.6626 464.785 22.3305 463.743 21.4968C463.018 20.9349 461.804 19.4669 457.373 17.9173C455.85 17.3917 453.404 16.8843 453.404 16.8843L452.969 17.3827V17.4008Z" fill="url(#paint0_linear_21900_1586)"/>
<path d="M465.982 26.209C465.982 26.209 465.955 25.6381 465.81 25.1578C465.701 24.7319 465.511 24.3151 465.221 23.8892C464.876 23.3817 464.405 22.7745 463.717 22.113C463.191 21.6237 462.62 21.1797 461.931 20.7175C459.149 18.8961 455.561 17.8721 452.38 17.4371C447.46 16.7846 441.814 16.8934 441.27 16.8753C439.458 16.8481 427.714 16.9478 424.696 17.0021C411.294 17.2831 394.892 17.3193 390.596 17.3193C346.238 17.5187 326.927 16.5672 305.442 12.2628C287.164 8.62895 277.015 5.18544 277.015 5.18544C293.136 4.6236 387.225 0.726996 404.397 0.26484C415.634 -0.0523256 423.618 -0.115759 429.997 0.246716C433.269 0.427954 436.322 0.708872 440.147 1.36133C443.581 1.95035 446.689 2.94716 448.511 3.61774C452.335 5.03139 455.552 7.07937 457.147 9.17267C457.147 9.17267 457.618 9.65295 458.261 10.5138C458.977 11.5106 459.811 12.734 460.092 13.1961C462.421 16.7212 463.526 18.9323 463.907 19.7026C464.324 20.5181 464.686 21.3518 465.049 22.1765C465.393 22.992 465.538 23.4904 465.656 23.8348C465.9 24.7047 465.964 25.4931 465.973 25.6653L466 26.1999L465.982 26.209Z" fill="#E30013"/>
<defs>
<linearGradient id="paint0_linear_21900_1586" x1="446.172" y1="10.9578" x2="422.358" y2="52.2075" gradientUnits="userSpaceOnUse">
<stop stop-color="#4364AD"/>
<stop offset="0.09" stop-color="#6983BD"/>
<stop offset="0.23" stop-color="#9FAFD5"/>
<stop offset="0.35" stop-color="#C7CFE7"/>
<stop offset="0.44" stop-color="#E0E2F2"/>
<stop offset="0.5" stop-color="#E9EAF6"/>
<stop offset="0.75" stop-color="#F8F9FD"/>
<stop offset="1" stop-color="#F8F9FD"/>
</linearGradient>
</defs>
</svg>
