<?xml version="1.0" encoding="utf-8"?>
<!-- Generator: Adobe Illustrator 16.0.0, SVG Export Plug-In . SVG Version: 6.00 Build 0)  -->
<!DOCTYPE svg PUBLIC "-//W3C//DTD SVG 1.1//EN" "http://www.w3.org/Graphics/SVG/1.1/DTD/svg11.dtd">
<svg version="1.1" id="Layer_1" xmlns="http://www.w3.org/2000/svg" xmlns:xlink="http://www.w3.org/1999/xlink" x="0px" y="0px"
	 width="72.834px" height="72.833px" viewBox="-27.5 -27.5 72.834 72.833" enable-background="new -27.5 -27.5 72.834 72.833"
	 xml:space="preserve">
<path fill="#004684" d="M9-23C26.641-23,41-8.641,41,9S26.641,41,9,41S-23,26.641-23,9S-8.641-23,9-23 M9-27
	c-19.881,0-36,16.119-36,36c0,19.883,16.119,36,36,36c19.883,0,36-16.117,36-36C45-10.881,28.883-27,9-27L9-27z"/>
<path fill="#004684" d="M12.641-4.119c1.078,0,2.078-0.48,2.879-1.4C16.32-6.4,16.719-7.48,16.719-8.641
	c0-0.959-0.32-1.719-0.918-2.359c-0.602-0.6-1.402-0.959-2.32-0.92c-1.121-0.039-2.121,0.439-2.92,1.32
	C9.801-9.76,9.4-8.721,9.4-7.52c0,1,0.32,1.799,0.92,2.439S11.719-4.119,12.641-4.119z"/>
<path fill="#004684" d="M16.801,21.801l-1.238-1.199c-0.402-0.359-1-0.359-1.402,0c-2.48,2.359-3.68,3.238-4.16,3.516
	C10.039,23,10.641,19.801,13.199,11C15,4.84,15.242,3.439,15.242,2.92c0-0.801-0.32-1.48-0.922-1.961
	c-0.563-0.439-1.281-0.68-2.203-0.639c-1.396,0-2.998,0.52-4.877,1.6c-1.84,1.039-3.84,2.801-6,5.199C1.039,7.32,0.961,7.6,1,7.881
	C1.039,8.16,1.16,8.4,1.4,8.6l1.4,1.08C3.199,10,3.76,9.959,4.119,9.6c2.32-2.359,3.121-3,3.361-3.16
	c0.16-0.08,0.32-0.16,0.439-0.24c-0.039,0.16-0.08,0.32-0.119,0.521C4.641,17.16,3.119,23.602,3.16,26.359
	c0,1.078,0.32,1.961,0.92,2.602c0.641,0.68,1.48,1,2.48,1c1.039,0,2.24-0.441,3.76-1.281c1.398-0.797,3.52-2.563,6.48-5.398
	c0.199-0.203,0.316-0.441,0.316-0.719C17.117,22.281,17,22,16.801,21.801z"/>
</svg>
