<svg width="185" height="47" viewBox="0 0 185 47" fill="none" xmlns="http://www.w3.org/2000/svg">
<g clip-path="url(#clip0_22358_3451)">
<path d="M171.63 16.9698C166.429 22.1435 155.15 26.5807 149.604 28.6662C142.025 31.5148 138.662 32.5176 134.42 33.902C129.619 35.455 120.017 38.3658 120.017 38.3658C139.913 44.3027 153.925 46.0953 153.925 46.0953C153.925 46.0953 160.457 44.0809 170.804 38.5433C176.404 35.6946 179.164 33.7778 181.134 31.9408C181.862 31.2841 183.734 29.3317 184.205 26.8292C184.231 26.6428 184.32 26.1724 184.32 25.7021C184.32 25.7021 184.32 25.3738 184.293 25.0809C184.285 24.7526 184.222 24.5307 184.222 24.5307C184.222 24.5307 184.116 23.9361 183.965 23.519C183.814 23.1019 183.175 21.8152 182.137 20.981C181.445 20.4219 180.247 19.0197 175.907 17.4933C174.434 16.9786 172.047 16.5083 172.047 16.5083L171.63 16.9698Z" fill="url(#paint0_linear_22358_3451)"/>
<path d="M184.32 25.5601C184.32 25.5601 184.293 25.0099 184.151 24.5395C184.045 24.1224 183.859 23.7231 183.583 23.306C183.246 22.8091 182.785 22.2233 182.11 21.5755C181.596 21.0963 181.036 20.6703 180.371 20.2177C177.655 18.4429 174.15 17.4401 171.053 17.0141C166.252 16.3752 160.741 16.4905 160.217 16.4728C158.442 16.4461 146.995 16.5438 144.048 16.597C130.976 16.8632 114.976 16.8987 110.787 16.8987C67.516 17.094 48.6846 16.1622 27.7234 11.9646C9.89488 8.42375 0 5.06038 0 5.06038C15.7253 4.51905 107.504 0.711952 124.25 0.259361C135.209 -0.0512406 142.992 -0.113365 149.222 0.241609C152.417 0.419095 155.39 0.694201 159.117 1.32428C162.462 1.90111 165.506 2.86841 167.272 3.52511C171 4.90951 174.141 6.90625 175.694 8.94734C175.694 8.94734 176.156 9.41769 176.777 10.2519C177.478 11.2192 178.285 12.4172 178.561 12.8609C180.832 16.2953 181.906 18.4606 182.279 19.2149C182.687 20.0047 183.042 20.8301 183.388 21.6288C183.725 22.4274 183.867 22.9067 183.983 23.2439C184.222 24.087 184.284 24.859 184.293 25.0276L184.32 25.5601Z" fill="#E30013"/>
</g>
<defs>
<linearGradient id="paint0_linear_22358_3451" x1="165.001" y1="10.7322" x2="141.798" y2="50.9484" gradientUnits="userSpaceOnUse">
<stop stop-color="#4364AD"/>
<stop offset="0.09" stop-color="#6983BD"/>
<stop offset="0.23" stop-color="#9FAFD5"/>
<stop offset="0.35" stop-color="#C7CFE7"/>
<stop offset="0.44" stop-color="#E0E2F2"/>
<stop offset="0.5" stop-color="#E9EAF6"/>
<stop offset="0.75" stop-color="#F8F9FD"/>
<stop offset="1" stop-color="#F8F9FD"/>
</linearGradient>
<clipPath id="clip0_22358_3451">
<rect width="184.32" height="46.0953" fill="white"/>
</clipPath>
</defs>
</svg>
