<?xml version="1.0" standalone="no"?>
<!DOCTYPE svg PUBLIC "-//W3C//DTD SVG 1.1//EN" "http://www.w3.org/Graphics/SVG/1.1/DTD/svg11.dtd" >
<svg xmlns="http://www.w3.org/2000/svg">
<metadata>
This is a custom SVG webfont generated by Font Squirrel.
Copyright   : Mylius is a trademark of British Airways
</metadata>
<defs>
<font id="MyliusModernRegular" horiz-adv-x="1028" >
<font-face units-per-em="2048" ascent="1638" descent="-410" />
<missing-glyph horiz-adv-x="579" />
<glyph unicode=" "  horiz-adv-x="579" />
<glyph unicode="&#x09;" horiz-adv-x="579" />
<glyph unicode="&#xa0;" horiz-adv-x="579" />
<glyph unicode="!" horiz-adv-x="546" d="M139 102q0 57 40 96.5t96.5 39.5t95.5 -39t39 -97q0 -51 -40 -90t-94.5 -39t-95.5 40t-41 89zM178 1636h193l-19 -1247h-155z" />
<glyph unicode="&#x22;" horiz-adv-x="765" d="M106 1513v123h181v-123l-27 -358h-127zM481 1513v123h178v-123l-24 -358h-127z" />
<glyph unicode="#" horiz-adv-x="1290" d="M51 442v154h221l80 391h-301v152h334l94 460h168l-94 -460h293l94 460h168l-94 -460h200v-152h-233l-80 -391h313v-154h-346l-90 -442h-168l90 442h-290l-93 -442h-165l90 442h-191zM440 596h293l80 391h-293z" />
<glyph unicode="$" horiz-adv-x="1310" d="M104 326q233 -174 469 -199v668q-205 76 -307 177t-102 279.5t117.5 270.5t291.5 110v183h158v-181q184 -10 342 -69l8 -187q-160 80 -350 95v-547q109 -41 179.5 -78t139 -94.5t102.5 -138t34 -185.5q0 -207 -121 -324.5t-334 -138.5v-182h-158v182q-240 20 -444 144z M344 1251q0 -102 56.5 -161.5t172.5 -106.5v487q-229 -26 -229 -219zM731 129q272 31 273 301q0 115 -70 183.5t-203 123.5v-608z" />
<glyph unicode="%" horiz-adv-x="1716" d="M76 1206q0 213 85 321.5t226 108.5t226 -108.5t85 -321.5t-85 -321.5t-226 -108.5t-226 108.5t-85 321.5zM244 1206.5q0 -284.5 143 -284.5t143 284.5t-143 284.5t-143 -284.5zM324 0l899 1599h188l-899 -1599h-188zM1020 393q0 213 85 321.5t226.5 108.5t226 -108.5 t84.5 -321.5t-84.5 -321.5t-226 -108.5t-226.5 108.5t-85 321.5zM1188 394.5q0 -283.5 143.5 -283.5t143.5 283.5t-143.5 283.5t-143.5 -283.5z" />
<glyph unicode="&#x26;" horiz-adv-x="1456" d="M113 399q0 158 83 264.5t267 223.5q-131 160 -174 247t-43 191q0 150 112.5 236t278.5 86q193 0 296 -97.5t103 -246.5q0 -135 -79.5 -235.5t-254.5 -211.5l400 -483q55 125 55 315q0 86 -14 166h178q12 -72 12 -166q0 -283 -119 -457l199 -231h-227l-86 102 q-166 -139 -463 -139q-238 0 -381 117.5t-143 318.5zM303 401q0 -143 92 -213.5t242 -70.5q231 0 360 114l-434 535q-121 -82 -190.5 -167t-69.5 -198zM426 1325q0 -72 41 -148.5t139 -201.5q143 92 195.5 161.5t52.5 166.5q0 78 -50 135t-167 57q-109 0 -160 -52t-51 -118z " />
<glyph unicode="'" horiz-adv-x="395" d="M106 1507v129h183v-129l-29 -352h-127z" />
<glyph unicode="(" horiz-adv-x="673" d="M119 598q0 250 43 445.5t115.5 314.5t149.5 188.5t163 104.5l20 -162q-315 -180 -315 -891t315 -891l-20 -162q-86 37 -163 106.5t-149.5 187.5t-115.5 313.5t-43 445.5z" />
<glyph unicode=")" horiz-adv-x="673" d="M66 -293q315 180 315 891t-315 891l20 162q86 -35 163 -104.5t149.5 -188.5t115.5 -314.5t43 -445.5t-43 -445.5t-115.5 -313.5t-149.5 -187.5t-163 -106.5z" />
<glyph unicode="*" horiz-adv-x="956" d="M90 1317l55 151l258 -96l-10 279h172l-10 -281l264 98l49 -159l-268 -74l170 -221l-137 -96l-156 225l-153 -230l-136 105l166 217z" />
<glyph unicode="+" d="M74 764v151h360v363h162v-363h358v-151h-358v-361h-162v361h-360z" />
<glyph unicode="," horiz-adv-x="413" d="M53 -289l90 520h207l-137 -520h-160z" />
<glyph unicode="-" horiz-adv-x="794" d="M59 649v162h674v-162h-674z" />
<glyph unicode="." horiz-adv-x="397" d="M66 100q0 57 38.5 95t95 38t95.5 -37.5t39 -95.5q0 -51 -40 -90t-94.5 -39t-94 40t-39.5 89z" />
<glyph unicode="/" horiz-adv-x="1105" d="M86 -68l739 1698h191l-746 -1698h-184z" />
<glyph unicode="0" horiz-adv-x="1380" d="M123 801q0 412 154.5 623.5t412.5 211.5t411.5 -212t153.5 -624.5t-153.5 -624.5t-411.5 -212t-412.5 213t-154.5 625zM313 801q0 -367 107.5 -521.5t269.5 -154.5t269.5 154.5t107.5 521.5t-107.5 520.5t-269.5 153.5t-269.5 -153.5t-107.5 -520.5z" />
<glyph unicode="1" horiz-adv-x="845" d="M158 1186v176l366 278h66v-1640h-184v1350z" />
<glyph unicode="2" horiz-adv-x="1196" d="M55 0v49l404 428q231 246 325.5 390.5t94.5 312.5q0 295 -308 295q-213 0 -446 -144l14 193q197 113 432 112q236 0 368 -125t132 -331q0 -186 -105.5 -357.5t-363.5 -441.5l-207 -213h713l-64 -168h-989z" />
<glyph unicode="3" horiz-adv-x="1265" d="M133 291q236 -162 485 -162q158 0 257.5 80t99.5 254q0 184 -129 252.5t-373 68.5h-98v148h98q231 0 342 68.5t111 240.5q0 233 -305 234q-195 0 -433 -95l19 185q205 72 414 71q233 0 364 -102t131 -293q0 -250 -231 -373q281 -115 280 -405q0 -248 -158.5 -373 t-388.5 -125q-256 0 -471 117z" />
<glyph unicode="4" horiz-adv-x="1359" d="M121 471v100l792 1065h138v-1001h243l-30 -164h-213v-471h-181v471h-749zM383 635h487v663z" />
<glyph unicode="5" horiz-adv-x="1265" d="M106 291q240 -164 488 -164q154 0 257 85t103 259q0 209 -168 283.5t-602 74.5l109 770h821l-57 -165h-600l-68 -451q373 -4 565.5 -118.5t192.5 -393.5q0 -250 -158 -379t-395 -129q-252 0 -469 119z" />
<glyph unicode="6" horiz-adv-x="1265" d="M86 688q0 176 30.5 333t101.5 301t203 229t312 85q172 0 295 -39l21 -180q-137 57 -316 58q-201 0 -309.5 -159t-136.5 -409q141 109 362 109q231 0 365.5 -129t134.5 -367q0 -246 -140.5 -401.5t-369.5 -155.5q-190 0 -318 104.5t-181.5 262t-53.5 358.5zM276 688 q0 -264 91.5 -413.5t271.5 -149.5q135 0 226 100.5t91 294.5q0 158 -78.5 247t-238.5 89q-94 0 -193.5 -36t-169.5 -99v-33z" />
<glyph unicode="7" horiz-adv-x="1095" d="M2 1434l68 165h979v-77l-617 -1522h-192l596 1434h-834z" />
<glyph unicode="8" horiz-adv-x="1265" d="M121 393q0 287 350 471q-156 94 -226.5 180t-70.5 216q0 168 114.5 272t352.5 104q199 0 333 -100t134 -276q0 -125 -72.5 -219.5t-228.5 -180.5q170 -98 262 -207.5t92 -259.5q0 -201 -143.5 -315.5t-376.5 -114.5q-227 0 -373.5 108.5t-146.5 321.5zM309 393 q0 -131 96.5 -202.5t235.5 -71.5q330 0 330 274q0 106 -84 192.5t-264 190.5q-314 -172 -314 -383zM362 1260q0 -96 56.5 -153.5t232.5 -158.5q147 82 205.5 152.5t58.5 159.5q0 100 -69.5 160.5t-204.5 60.5q-129 0 -204 -60.5t-75 -160.5z" />
<glyph unicode="9" horiz-adv-x="1265" d="M104 1079q0 246 140.5 401.5t369.5 155.5q190 0 318.5 -104.5t181.5 -262t53 -358.5q0 -176 -30.5 -332.5t-101 -301t-203 -229.5t-312.5 -85q-172 0 -295 39l-20 180q137 -57 315 -57q201 0 309.5 158.5t137.5 408.5q-141 -106 -363 -106q-231 0 -365.5 128.5 t-134.5 364.5zM297 1079q0 -158 80 -247t237 -89q215 0 363 136v32q0 264 -91 414t-272 150q-135 0 -226 -99.5t-91 -296.5z" />
<glyph unicode=":" horiz-adv-x="397" d="M66 100q0 57 38.5 95t95 38t95.5 -37.5t39 -95.5q0 -51 -40 -90t-94.5 -39t-94 40t-39.5 89zM66 1034q0 55 38.5 94t95 39t95.5 -38.5t39 -94.5q0 -51 -40 -90t-94.5 -39t-94 40t-39.5 89z" />
<glyph unicode=";" horiz-adv-x="446" d="M53 -289l90 520h207l-137 -520h-160zM115 1034q0 55 39 94t95 39t95 -38.5t39 -94.5q0 -51 -40 -90t-93 -39t-94 40t-41 89z" />
<glyph unicode="&#x3c;" d="M70 739v162l888 369v-162l-696 -287l696 -286v-160z" />
<glyph unicode="=" d="M76 551v151h878v-151h-878zM76 967v153h878v-153h-878z" />
<glyph unicode="&#x3e;" d="M70 375v160l696 286l-696 287v162l888 -369v-162z" />
<glyph unicode="?" horiz-adv-x="923" d="M43 1415l8 174q170 70 363 70q207 0 332.5 -99.5t125.5 -306.5q0 -240 -241 -491q-66 -68 -98.5 -111t-63.5 -115.5t-35 -160.5h-164q6 113 48 216t82 156.5t106 120.5q100 109 141 195t41 190q0 248 -274 248q-203 0 -371 -86zM219 100q0 57 40 95t96.5 38t94 -37.5 t37.5 -95.5q0 -51 -38.5 -90t-93 -39t-95.5 40t-41 89z" />
<glyph unicode="@" horiz-adv-x="2183" d="M57 553q0 145 39 291.5t126 287t210 246t304.5 171t398.5 65.5q434 0 709.5 -245t275.5 -615q0 -156 -42 -286t-108.5 -215t-153.5 -143.5t-172 -84t-167 -25.5q-90 0 -138.5 34t-78.5 93q-150 -127 -361 -127q-190 0 -294.5 130t-104.5 368q0 285 172 463t428 178 q199 0 293 -125l24 98h193l-154 -729q-20 -86 -20 -129q0 -80 82 -80q47 0 100 16.5t113.5 59.5t106.5 105.5t77 167t31 231.5q0 166 -64.5 302t-176.5 223t-258.5 133t-311.5 46q-215 0 -391.5 -79t-285 -208t-168 -288.5t-59.5 -329.5q0 -180 48.5 -338t144.5 -287 t262 -202.5t385 -73.5q152 0 286 36t224 95t144.5 110.5t95.5 104.5h200q-49 -74 -118.5 -145.5t-186.5 -158.5t-285.5 -141.5t-359.5 -54.5q-215 0 -389 62.5t-288.5 166t-191.5 240.5t-111 283.5t-34 302.5zM700 498q0 -174 60.5 -249t177.5 -75q276 0 326 238l47 219 q16 68 16 119q0 223 -229 223q-203 0 -300.5 -133t-97.5 -342z" />
<glyph unicode="A" horiz-adv-x="1595" d="M33 0l655 1599h203l672 -1599h-197l-213 506h-715l-207 -506h-198zM500 662h590l-304 722z" />
<glyph unicode="B" horiz-adv-x="1329" d="M172 0v1599h444q252 0 396.5 -96t144.5 -303q0 -229 -207 -342q322 -96 322 -401q0 -244 -166 -350.5t-485 -106.5h-449zM354 164h269q145 0 237 20.5t154.5 88t62.5 186.5q0 70 -21.5 123t-64.5 82.5t-83 49t-103.5 25.5t-98 8.5t-94.5 2.5h-258v-586zM354 909h256 q354 0 355 287q0 78 -30 128t-87 73.5t-115.5 32t-140.5 8.5h-238v-529z" />
<glyph unicode="C" horiz-adv-x="1490" d="M106 772q0 412 230.5 638t609.5 226q252 0 449 -73l20 -211q-205 121 -475 121q-307 0 -474 -182.5t-167 -518.5q0 -297 170 -471t471 -174q211 0 487 115l-53 -205q-215 -74 -426 -74q-242 0 -427 87t-300 273.5t-115 448.5z" />
<glyph unicode="D" horiz-adv-x="1656" d="M182 0v1599h424q455 0 699.5 -207.5t244.5 -590.5t-244.5 -592t-699.5 -209h-424zM365 164h241q752 0 752 636t-752 636h-241v-1272z" />
<glyph unicode="E" horiz-adv-x="1251" d="M182 0v1599h899l17 -167h-733v-506h632l15 -168h-647v-590h811l-19 -168h-975z" />
<glyph unicode="F" horiz-adv-x="1153" d="M182 0v1599h899l21 -167h-737v-510h628l13 -166h-641v-756h-183z" />
<glyph unicode="G" horiz-adv-x="1671" d="M106 801q0 365 230.5 600t611.5 235q276 0 447 -73l20 -201q-190 111 -467 111q-293 0 -471 -179.5t-178 -492.5t167 -493.5t460 -180.5q207 0 391 57v445h-258v153h442v-700q-260 -119 -590 -119q-365 0 -585 229.5t-220 608.5z" />
<glyph unicode="H" horiz-adv-x="1652" d="M182 0v1599h187v-679h917v679h184v-1599h-184v756h-917v-756h-187z" />
<glyph unicode="I" horiz-adv-x="548" d="M182 0v1599h187v-1599h-187z" />
<glyph unicode="J" horiz-adv-x="548" d="M-129 -289q195 147 253 246.5t58 273.5v1368h187v-1368q0 -152 -42 -258t-119 -184t-224 -180z" />
<glyph unicode="K" horiz-adv-x="1411" d="M178 0v1599h184v-825l828 825h235l-671 -669l678 -930h-220l-583 807l-267 -262v-545h-184z" />
<glyph unicode="L" horiz-adv-x="1228" d="M182 0v1599h187v-1431h807l-19 -168h-975z" />
<glyph unicode="M" horiz-adv-x="1935" d="M182 0v1599h187l616 -1159l582 1159h186v-1599h-186v1262l-586 -1186l-612 1190v-1266h-187z" />
<glyph unicode="N" horiz-adv-x="1654" d="M182 0v1599h164l946 -1284v1284h181v-1599h-164l-947 1284v-1284h-180z" />
<glyph unicode="O" horiz-adv-x="1851" d="M106 800q0 378 227.5 607t594.5 229q362 0 589.5 -229t227.5 -607t-227.5 -607.5t-589.5 -229.5q-367 0 -594.5 229.5t-227.5 607.5zM299 799.5q0 -314.5 171 -493.5t456.5 -179t455.5 179t170 493.5t-170 494t-455.5 179.5t-456.5 -179.5t-171 -494z" />
<glyph unicode="P" horiz-adv-x="1226" d="M182 0v1599h344q616 0 617 -444q0 -451 -617 -450h-161v-705h-183zM365 866h161q217 0 319.5 65.5t102.5 223.5q0 154 -103.5 218.5t-318.5 64.5h-161v-572z" />
<glyph unicode="Q" horiz-adv-x="1853" d="M106 800q0 378 227.5 607t594.5 229q362 0 589.5 -229t227.5 -606q0 -369 -221 -598l213 -240h-215l-119 135q-203 -135 -475 -135q-367 0 -594.5 229.5t-227.5 607.5zM299 799.5q0 -314.5 171 -493.5t458 -179q207 0 360 98l-190 215h217l92 -104q145 180 145 465 q0 313 -170 492.5t-455.5 179.5t-456.5 -179.5t-171 -494z" />
<glyph unicode="R" horiz-adv-x="1437" d="M182 0v1599h344q602 0 602 -425q0 -283 -270 -400q106 -47 193 -182l381 -592h-224l-311 487q-90 143 -152.5 179t-218.5 36h-157v-702h-187zM369 854h157q229 0 319.5 77t90.5 243q0 154 -100.5 215t-309.5 61h-157v-596z" />
<glyph unicode="S" horiz-adv-x="1294" d="M96 326q272 -201 541 -201q358 0 358 305q0 59 -22.5 109.5t-52 82t-89 64.5t-104.5 51.5t-125 44.5q-225 80 -335.5 182.5t-110.5 286.5q0 109 45 187t120.5 118.5t157.5 60t170 19.5q231 0 416 -71l8 -187q-195 96 -424 97q-313 0 -313 -224q0 -121 74.5 -180 t244.5 -121q127 -45 203 -80.5t159 -95t121 -144.5t38 -200q0 -225 -143.5 -346t-395.5 -121q-274 0 -516 148z" />
<glyph unicode="T" horiz-adv-x="1355" d="M20 1432l23 167h1272l20 -167h-565v-1432h-184v1432h-566z" />
<glyph unicode="U" horiz-adv-x="1640" d="M172 563v1036h182v-995q0 -240 100.5 -359.5t325.5 -119.5q256 0 496 141v1333h182v-1599h-182v106q-219 -143 -496 -143q-301 0 -454.5 154.5t-153.5 445.5z" />
<glyph unicode="V" horiz-adv-x="1527" d="M43 1599h188l545 -1394l524 1394h187l-619 -1599h-192z" />
<glyph unicode="W" horiz-adv-x="2004" d="M43 1599h188l375 -1359l371 1120h53l371 -1120l373 1359h190l-451 -1599h-210l-302 920l-299 -920h-210z" />
<glyph unicode="X" horiz-adv-x="1542" d="M33 0l639 815l-594 784h221l487 -647l500 647h213l-604 -786l616 -813h-223l-512 678l-530 -678h-213z" />
<glyph unicode="Y" horiz-adv-x="1419" d="M43 1599h203l461 -655l467 655h202l-575 -811v-788h-185v788z" />
<glyph unicode="Z" horiz-adv-x="1449" d="M76 0l956 1432h-893l51 167h1170l-957 -1431h973l-51 -168h-1249z" />
<glyph unicode="[" horiz-adv-x="763" d="M172 -444v2080h551v-153h-375v-1776h375v-151h-551z" />
<glyph unicode="\" horiz-adv-x="1105" d="M86 1630h186l732 -1698h-187z" />
<glyph unicode="]" horiz-adv-x="763" d="M43 -293h377v1776h-377v153h551v-2080h-551v151z" />
<glyph unicode="^" d="M8 856l467 789h80l465 -789h-174l-330 561l-334 -561h-174z" />
<glyph unicode="_" horiz-adv-x="1077" d="M-16 -203h1110v-151h-1110v151z" />
<glyph unicode="`" horiz-adv-x="714" d="M115 1599h217l239 -313h-172z" />
<glyph unicode="a" horiz-adv-x="1071" d="M96 283q0 127 86 203.5t250 129.5l313 103v61q0 111 -52 157t-185 46q-156 0 -344 -86l43 197q131 45 299 45q68 0 122 -6.5t112.5 -29t95 -60t61.5 -104.5t25 -159v-780h-177v86q-152 -113 -333 -113q-139 0 -227.5 76t-88.5 234zM283 283q0 -168 163 -168 q152 0 299 112v348l-227 -73q-117 -39 -176 -88t-59 -131z" />
<glyph unicode="b" horiz-adv-x="1214" d="M162 0v1630h176v-555q129 63 293 64q231 0 354 -138.5t123 -412.5q0 -125 -28.5 -223.5t-96.5 -185.5t-200 -133t-322 -46h-299zM338 160h123q266 0 363.5 105.5t97.5 322.5q0 186 -68 292.5t-238 106.5q-166 0 -278 -67v-760z" />
<glyph unicode="c" horiz-adv-x="1089" d="M106 553q0 287 148.5 436.5t402.5 149.5q160 0 297 -35l41 -193q-160 70 -338 70q-176 0 -271 -108.5t-95 -319.5q0 -193 91 -306.5t275 -113.5q172 0 347 70l-56 -187q-121 -43 -291 -43q-260 0 -405.5 160t-145.5 420z" />
<glyph unicode="d" horiz-adv-x="1214" d="M106 561q0 82 15.5 160t53.5 154.5t96.5 134t151.5 93.5t214 36q129 0 240 -35v526h176v-1630h-176v59q-133 -86 -293 -86q-238 0 -358 164t-120 424zM291 563q0 -104 24.5 -195.5t97 -163t187.5 -71.5q150 0 277 92v717q-102 41 -240 41q-178 0 -262 -113.5t-84 -306.5z " />
<glyph unicode="e" horiz-adv-x="1179" d="M106 561q0 242 137.5 410t370.5 168t346 -144.5t113 -404.5q0 -57 -4 -103h-778q6 -172 96 -263t262 -91q201 0 393 78l-61 -186q-131 -51 -334 -52q-268 0 -404.5 154.5t-136.5 433.5zM295 637h594q-4 346 -275 346q-141 0 -220 -100.5t-99 -245.5z" />
<glyph unicode="f" horiz-adv-x="712" d="M33 956l114 158h60v135q0 387 342 387q106 0 219 -32v-166q-119 51 -219 51q-88 0 -127 -55.5t-39 -184.5v-135h272v-158h-272v-956h-176v956h-174z" />
<glyph unicode="g" horiz-adv-x="1120" d="M53 -154q0 78 45 144.5t117 103.5q-125 47 -125 176q0 111 152 199q-127 106 -127 291q0 174 122.5 276.5t303.5 102.5q176 0 295 -86h235q29 -68 41 -150h-164q25 -61 25 -143q0 -184 -115 -284.5t-317 -100.5q-82 0 -162 20q-117 -51 -117 -119q0 -63 113 -75l303 -35 q178 -23 282.5 -89.5t104.5 -211.5q0 -170 -128 -251t-394 -81q-490 0 -490 313zM231 -152q0 -180 312 -180q195 0 269.5 49.5t74.5 147.5q0 66 -51.5 105.5t-176.5 56.5l-272 32q-156 -68 -156 -211zM293 760q0 -242 248 -242q252 0 252 242q0 102 -58.5 168.5t-193.5 66.5 q-106 0 -177 -62t-71 -173z" />
<glyph unicode="h" horiz-adv-x="1185" d="M162 0v1630h174v-616q147 125 334 125q199 0 277.5 -101.5t78.5 -304.5v-733h-176v731q0 135 -38 195.5t-155 60.5q-172 0 -321 -137v-850h-174z" />
<glyph unicode="i" horiz-adv-x="495" d="M143 1534q0 45 30 73.5t77 28.5q45 0 75.5 -29.5t30.5 -72.5t-30.5 -72.5t-75.5 -29.5q-47 0 -77 29.5t-30 72.5zM162 0v1114h174v-1114h-174z" />
<glyph unicode="j" horiz-adv-x="495" d="M-117 -348q154 133 216.5 242.5t62.5 273.5v946h174v-944q0 -190 -76 -321.5t-254 -284.5zM143 1534q0 43 31 72.5t76 29.5t75.5 -29.5t30.5 -72.5t-30.5 -72.5t-75.5 -29.5t-76 29.5t-31 72.5z" />
<glyph unicode="k" horiz-adv-x="1128" d="M162 0v1630h176v-932l475 416h236l-490 -420l547 -694h-217l-457 588l-94 -82v-506h-176z" />
<glyph unicode="l" horiz-adv-x="495" d="M162 0v1630h174v-1630h-174z" />
<glyph unicode="m" horiz-adv-x="1822" d="M162 0v1114h176v-96q152 125 332 125q197 0 278 -144q162 143 350 144q203 0 284 -104.5t81 -288.5v-750h-176v743q0 117 -39 179.5t-158 62.5q-156 0 -295 -137q4 -53 4 -103v-745h-176v745q0 125 -32.5 182.5t-139.5 57.5q-160 0 -313 -137v-848h-176z" />
<glyph unicode="n" horiz-adv-x="1185" d="M162 0v1114h174v-100q147 125 334 125q199 0 277.5 -101.5t78.5 -304.5v-733h-176v731q0 135 -38 195.5t-155 60.5q-172 0 -321 -137v-850h-174z" />
<glyph unicode="o" horiz-adv-x="1306" d="M106 559q0 264 146.5 422t402.5 158q254 0 399.5 -158t145.5 -422q0 -266 -145.5 -426t-399.5 -160q-256 0 -402.5 160t-146.5 426zM293 559q0 -209 95 -317.5t267 -108.5q170 0 266.5 108.5t96.5 317.5q0 205 -96.5 314.5t-266.5 109.5q-172 0 -267 -108.5t-95 -315.5z " />
<glyph unicode="p" horiz-adv-x="1232" d="M162 -444v1558h176v-86q137 111 324 111q238 0 351 -148.5t113 -421.5q0 -115 -27.5 -216t-90 -189t-175 -139.5t-268.5 -51.5q-127 0 -227 35v-452h-176zM338 166q102 -35 227 -35q207 0 293 124t86 314q0 414 -282 414q-203 0 -324 -135v-682z" />
<glyph unicode="q" horiz-adv-x="1208" d="M106 547q0 125 30 221t98.5 177t194.5 125t306 44h312v-1565h-179v476q-119 -51 -256 -52q-258 0 -382 150t-124 424zM291 547q0 -197 82 -306.5t239 -109.5q145 0 256 47v778h-133q-240 0 -342 -96t-102 -313z" />
<glyph unicode="r" horiz-adv-x="780" d="M162 0v1114h176v-129q127 154 321 154q45 0 103 -6l8 -158q-27 2 -82 2q-104 0 -187 -36t-163 -126v-815h-176z" />
<glyph unicode="s" horiz-adv-x="940" d="M96 252q180 -123 361 -123q217 0 217 158q0 61 -54.5 111.5t-191.5 115.5q-141 68 -222 146.5t-81 195.5q0 152 102.5 217.5t261.5 65.5q129 0 281 -35l10 -172q-162 55 -297 55q-184 0 -184 -131q0 -63 50 -107t159 -90q182 -82 260 -162.5t78 -209.5 q0 -141 -100.5 -227.5t-288.5 -86.5q-193 0 -351 93z" />
<glyph unicode="t" horiz-adv-x="786" d="M43 956q147 145 268 373h84v-215h291v-158h-291v-647q0 -111 31 -147.5t100 -36.5q74 0 207 41l-35 -156q-102 -37 -202 -37q-137 0 -206 79t-69 257v647h-178z" />
<glyph unicode="u" horiz-adv-x="1175" d="M152 381v733h176v-731q0 -135 36.5 -195.5t153.5 -60.5q172 0 324 137v850h174v-1114h-174v100q-150 -127 -334 -127q-201 0 -278.5 102.5t-77.5 305.5z" />
<glyph unicode="v" horiz-adv-x="1105" d="M20 1114h195l342 -858l346 858h182l-452 -1114h-156z" />
<glyph unicode="w" horiz-adv-x="1601" d="M43 1114h188l267 -795l305 768l303 -768l268 795h185l-379 -1114h-119l-258 662l-260 -662h-121z" />
<glyph unicode="x" horiz-adv-x="1193" d="M33 0l469 571l-428 543h205l329 -416l334 416h203l-438 -541l456 -573h-207l-354 444l-369 -444h-200z" />
<glyph unicode="y" horiz-adv-x="1128" d="M33 1114h192l344 -858l344 858h185l-451 -1102q-127 -309 -323 -463l-177 78q129 88 194 167t134 235z" />
<glyph unicode="z" horiz-adv-x="1009" d="M41 0l631 958h-602l43 156h864l-629 -958h647l-51 -156h-903z" />
<glyph unicode="{" horiz-adv-x="626" d="M106 598q66 66 95.5 117t29.5 116q0 61 -22 175q-31 160 -31 270q0 113 46 215t102 145h194q-168 -168 -168 -360q0 -84 29 -215q29 -135 29 -230q0 -135 -97 -233q96 -98 97 -236q0 -90 -29 -221q-29 -125 -29 -209q0 -209 168 -376h-194q-53 41 -100.5 152.5t-47.5 225 t31 259.5q23 115 22 169q0 68 -29.5 118t-95.5 118z" />
<glyph unicode="|" horiz-adv-x="505" d="M160 -86v1772h178v-1772h-178z" />
<glyph unicode="}" horiz-adv-x="626" d="M106 -444q168 168 168 376q0 76 -24 209q-31 143 -31 221q0 137 94 236q-94 98 -94 233q0 82 31 230q25 141 24 215q0 193 -168 360h197q53 -43 100.5 -145t47.5 -215q0 -100 -31 -270q-23 -125 -23 -175q0 -66 31 -116.5t92 -116.5q-61 -68 -92 -118t-31 -118 q0 -45 23 -169q31 -156 31 -261q0 -113 -48.5 -224t-99.5 -152h-197z" />
<glyph unicode="~" d="M-39 639q4 178 82 273.5t213 95.5q127 0 319 -129q129 -90 199 -91q80 0 109.5 56.5t36.5 171.5h149q-4 -180 -82 -275.5t-213 -95.5q-119 0 -289 119q-143 100 -227 100q-82 0 -112.5 -55t-39.5 -170h-145z" />
<glyph unicode="&#xa1;" horiz-adv-x="546" d="M139 1012q0 49 41 88t95.5 39t94.5 -38t40 -89q0 -57 -39 -96t-95.5 -39t-96.5 39t-40 96zM178 -522l19 1247h155l19 -1247h-193z" />
<glyph unicode="&#xa2;" horiz-adv-x="1015" d="M78 553q0 287 148.5 436.5t400.5 149.5l78 379h157l-82 -388q51 -6 146 -26l39 -193q-100 43 -217 62l-177 -838q18 -2 58 -2q172 0 346 70l-57 -187q-119 -43 -289 -43q-47 0 -88 9l-58 -273h-153l61 307q-152 61 -232.5 201.5t-80.5 335.5zM260 553q0 -270 166 -371 l168 797q-162 -12 -248 -118.5t-86 -307.5z" />
<glyph unicode="&#xa3;" horiz-adv-x="1230" d="M158 78q199 125 198 430q0 82 -28 213h-168v158h129q-39 166 -39 311q0 231 139 338.5t361.5 107.5t339.5 -37l20 -169q-154 45 -360 45q-160 0 -237 -69t-77 -216q0 -113 47 -311h471v-158h-432q25 -119 25 -213q0 -201 -103 -342h758l-39 -166h-970z" />
<glyph unicode="&#xa4;" horiz-adv-x="1193" d="M53 311l119 125q-113 135 -113 314q0 203 117 319l-123 125l107 104l119 -120q133 111 325 110q182 0 307 -108l123 120l109 -108l-119 -119q111 -123 111 -317q0 -188 -111 -324l119 -121l-103 -100l-120 125q-125 -119 -318 -119q-199 0 -328 117l-116 -125zM244 750 q0 -156 103.5 -263.5t254.5 -107.5q147 0 248.5 109.5t101.5 267.5q0 152 -101 261t-247 109q-154 0 -257 -108t-103 -268z" />
<glyph unicode="&#xa5;" horiz-adv-x="1382" d="M14 1599h203l463 -655l467 655h201l-484 -679h316v-152h-408v-150h408v-151h-408v-467h-182v467h-418v151h418v150h-418v152h326z" />
<glyph unicode="&#xa6;" horiz-adv-x="505" d="M160 -86v723h178v-723h-178zM160 963v723h178v-723h-178z" />
<glyph unicode="&#xa7;" horiz-adv-x="1179" d="M100 88q240 -182 478 -182q297 0 296 256q0 115 -82.5 176t-244.5 119q-190 63 -289.5 151t-99.5 256q0 125 84 205q-84 96 -84 219t68.5 207t163.5 115.5t210 31.5q209 0 352 -55l9 -174q-184 76 -369 76q-113 0 -186.5 -48t-73.5 -153q0 -94 76.5 -150.5t265.5 -123.5 q84 -31 141 -61.5t116.5 -79t89.5 -121t30 -166.5q0 -113 -66 -213q66 -88 66 -211q0 -201 -124 -307.5t-349 -106.5q-238 0 -449 125zM332 864q0 -92 64.5 -147t201.5 -105q207 -76 266 -120q8 35 8 94q0 61 -19 106t-59 77t-76 48.5t-95 36.5q-150 53 -267 117 q-24 -41 -24 -107z" />
<glyph unicode="&#xa8;" horiz-adv-x="714" d="M29 1458q0 47 33.5 81t82.5 34q47 0 82 -34t35 -81t-34.5 -81t-82.5 -34q-49 0 -82.5 34t-33.5 81zM451 1458q0 47 34.5 81t83.5 34t84 -34t35 -81t-35 -81t-84 -34t-83.5 34t-34.5 81z" />
<glyph unicode="&#xa9;" horiz-adv-x="1865" d="M96 801q0 346 246 590.5t592 244.5t590.5 -244.5t244.5 -590.5t-244.5 -592t-590.5 -246t-592 246t-246 592zM250 799.5q0 -283.5 199.5 -483t483.5 -199.5t484.5 199.5t200.5 483t-200.5 483.5t-484.5 200t-483.5 -200t-199.5 -483.5zM418 782q0 256 148.5 400.5 t385.5 144.5q158 0 297 -53l11 -154q-131 63 -308 64q-178 0 -280.5 -105.5t-102.5 -296.5q0 -168 104.5 -266t278.5 -98q176 0 308 61l-11 -151q-139 -55 -297 -56q-233 0 -383.5 132t-150.5 378z" />
<glyph unicode="&#xaa;" horiz-adv-x="602" d="M76 1188q0 129 184 180l146 41v23q0 55 -23 73.5t-86 18.5q-90 0 -197 -37l33 127q80 23 195 22q47 0 78.5 -5t67.5 -24.5t54.5 -63.5t18.5 -111v-396h-141v41q-70 -53 -164 -53q-166 0 -166 164zM217 1192q0 -63 72 -64q61 0 117 37v152l-82 -27q-57 -16 -82 -38.5 t-25 -59.5z" />
<glyph unicode="&#xab;" horiz-adv-x="1191" d="M86 559l317 555h191l-311 -555l311 -559h-191zM602 559l320 555h188l-309 -555l309 -559h-188z" />
<glyph unicode="&#xac;" d="M76 967v153h878v-569h-174v416h-704z" />
<glyph unicode="&#xad;" horiz-adv-x="794" d="M59 649v162h674v-162h-674z" />
<glyph unicode="&#xae;" horiz-adv-x="1865" d="M96 801q0 346 246 590.5t592 244.5t590.5 -244.5t244.5 -590.5t-244.5 -592t-590.5 -246t-592 246t-246 592zM250 799.5q0 -283.5 199.5 -483t483.5 -199.5t484.5 199.5t200.5 483t-200.5 483.5t-484.5 200t-483.5 -200t-199.5 -483.5zM606 336v1010h230q379 0 378 -277 q0 -166 -147 -244q53 -27 100 -98l252 -391h-180l-199 305q-51 80 -91 98.5t-128 18.5h-65v-422h-150zM756 885h65q131 0 185.5 47t54.5 137q0 150 -225 150h-80v-334z" />
<glyph unicode="&#xaf;" horiz-adv-x="714" d="M18 1391v153h666v-153h-666z" />
<glyph unicode="&#xb0;" horiz-adv-x="851" d="M123 1350q0 125 86 212t215 87t215 -87t86 -212t-86 -212t-215 -87t-215 87t-86 212zM268 1350.5q0 -66.5 43 -113.5t112 -47t112 47t43 113.5t-43 113.5t-112 47t-112 -47t-43 -113.5z" />
<glyph unicode="&#xb1;" d="M72 -31v154h878v-154h-878zM78 764v151h360v363h162v-363h358v-151h-358v-361h-162v361h-360z" />
<glyph unicode="&#xb2;" horiz-adv-x="792" d="M100 795v65l211 219q115 121 155 185.5t40 130.5q0 109 -121 108q-102 0 -254 -57l21 147q123 43 241 43q283 0 283 -233q0 -98 -55.5 -183t-196.5 -231l-41 -43h319l-57 -151h-545z" />
<glyph unicode="&#xb3;" horiz-adv-x="782" d="M113 965q150 -57 252 -58q143 0 143 146q0 131 -164 131h-129v116h115q156 0 155 117q0 86 -104 86q-121 0 -264 -53l18 143q125 43 238 43q281 0 280 -213q0 -125 -92 -172q117 -57 117 -198q0 -131 -83 -204t-230 -73q-98 0 -236 43z" />
<glyph unicode="&#xb4;" horiz-adv-x="714" d="M158 1286l239 313h217l-284 -313h-172z" />
<glyph unicode="&#xb5;" horiz-adv-x="1214" d="M174 -444v1558h176v-731q0 -135 38 -195.5t155 -60.5q172 0 321 137v850h174v-1114h-174v100q-147 -127 -334 -127q-106 0 -180 31v-448h-176z" />
<glyph unicode="&#xb6;" horiz-adv-x="1333" d="M33 1233q0 467 590 467h659v-178h-166v-1985h-182v1985h-248v-1985h-182v1245q-233 18 -352 143.5t-119 307.5z" />
<glyph unicode="&#xb7;" horiz-adv-x="397" d="M66 897q0 55 38.5 94t95 39t95.5 -39t39 -94q0 -51 -40 -90t-94.5 -39t-94 40t-39.5 89z" />
<glyph unicode="&#xb8;" horiz-adv-x="714" d="M154 -246q111 -39 170 -39q98 0 98 84q0 102 -193 209h189q82 -27 133 -81t51 -128q0 -102 -70.5 -161.5t-193.5 -59.5q-76 0 -150 27z" />
<glyph unicode="&#xb9;" horiz-adv-x="534" d="M92 1317v170l205 149h86v-843h-168v602z" />
<glyph unicode="&#xba;" horiz-adv-x="718" d="M70 1329q0 141 77.5 224t214 83t213 -83t76.5 -224q0 -137 -77.5 -221t-213.5 -84q-135 0 -212.5 84t-77.5 221zM215 1329q0 -90 39 -138t106 -48q72 0 111 48t39 138t-40 139.5t-108.5 49.5t-107.5 -49.5t-39 -139.5z" />
<glyph unicode="&#xbb;" horiz-adv-x="1191" d="M59 0l314 559l-314 555h191l317 -555l-317 -559h-191zM578 0l311 559l-311 555h188l317 -555l-317 -559h-188z" />
<glyph unicode="&#xbc;" horiz-adv-x="1523" d="M96 1317v170l205 149h86v-843h-168v602zM160 0l901 1599h186l-899 -1599h-188zM750 205v94l448 545h102v-502h127l-34 -137h-93v-205h-167v205h-383zM950 342h183v221z" />
<glyph unicode="&#xbd;" horiz-adv-x="1613" d="M96 1317v170l205 149h86v-843h-168v602zM170 0l901 1599h186l-899 -1599h-188zM915 0v66l211 219q115 119 155 183t40 132q0 106 -121 107q-102 0 -254 -58l19 150q125 43 243 43q283 0 283 -236q0 -96 -55.5 -181t-196.5 -232l-41 -41h320l-58 -152h-545z" />
<glyph unicode="&#xbe;" horiz-adv-x="1687" d="M96 965q152 -57 254 -58q141 0 142 146q0 131 -162 131h-129v116h112q158 0 158 117q0 86 -106 86q-119 0 -265 -53l21 143q125 43 235 43q283 0 283 -213q0 -125 -92 -172q115 -57 115 -198q0 -131 -82 -204t-230 -73q-98 0 -235 43zM332 0l901 1599h186l-899 -1599 h-188zM913 205v94l449 545h102v-502h127l-35 -137h-92v-205h-168v205h-383zM1114 342h182v221z" />
<glyph unicode="&#xbf;" horiz-adv-x="923" d="M51 -141q0 240 244 491q63 68 97 111t63.5 115.5t33.5 160.5h164q-6 -115 -48 -217t-82 -155.5t-103 -120.5q-102 -109 -142 -195t-40 -190q0 -248 274 -248q203 0 369 86l-9 -174q-170 -70 -360 -70q-209 0 -335 99.5t-126 306.5zM436 1012q0 51 40 89t93.5 38t94.5 -39 t41 -88q0 -57 -39 -96t-95.5 -39t-95.5 39t-39 96z" />
<glyph unicode="&#xc0;" horiz-adv-x="1595" d="M33 0l655 1599h203l672 -1599h-197l-213 506h-715l-207 -506h-198zM473 2030h217l242 -314h-172zM500 662h590l-304 722z" />
<glyph unicode="&#xc1;" horiz-adv-x="1595" d="M33 0l655 1599h203l672 -1599h-197l-213 506h-715l-207 -506h-198zM500 662h590l-304 722zM705 1716l241 314h217l-286 -314h-172z" />
<glyph unicode="&#xc2;" horiz-adv-x="1595" d="M33 0l655 1599h203l672 -1599h-197l-213 506h-715l-207 -506h-198zM457 1716l243 314h181l243 -314h-174l-159 180l-158 -180h-176zM500 662h590l-304 722z" />
<glyph unicode="&#xc3;" horiz-adv-x="1595" d="M33 0l655 1599h203l672 -1599h-197l-213 506h-715l-207 -506h-198zM416 1733q2 27 9 54.5t24.5 62t42 59t65.5 43t92 18.5q72 0 187 -53q74 -35 102 -35q35 0 51.5 21.5t30.5 68.5h158q-4 -37 -14.5 -70.5t-35 -74.5t-73.5 -66.5t-117 -25.5q-84 0 -199 57 q-63 31 -86.5 31t-39 -13.5t-22.5 -29t-18 -47.5h-157zM500 662h590l-304 722z" />
<glyph unicode="&#xc4;" horiz-adv-x="1595" d="M33 0l655 1599h203l672 -1599h-197l-213 506h-715l-207 -506h-198zM471 1830q0 48 35 81t84 33q47 0 81 -33t34 -81t-34 -81t-81 -33q-49 0 -84 33t-35 81zM500 662h590l-304 722zM895 1830q0 48 34 81t84 33t83.5 -33t33.5 -81t-33.5 -81t-83.5 -33t-84 33t-34 81z" />
<glyph unicode="&#xc5;" horiz-adv-x="1595" d="M33 0l655 1599h203l672 -1599h-197l-213 506h-715l-207 -506h-198zM500 662h590l-304 722zM600 1828q0 81 56.5 137t134.5 56q82 0 138 -56t56 -138q0 -78 -56.5 -134.5t-138 -56.5t-136 55.5t-54.5 136.5zM694 1828q0 -46 28 -72.5t68.5 -26.5t70.5 28.5t30 71.5 t-30 70.5t-70.5 27.5t-68.5 -26.5t-28 -72.5z" />
<glyph unicode="&#xc6;" horiz-adv-x="2037" d="M20 0l957 1599h891l16 -167h-731v-506h633l12 -168h-645v-590h811l-20 -168h-973v500h-443l-299 -500h-209zM627 668h344v567z" />
<glyph unicode="&#xc7;" horiz-adv-x="1490" d="M106 772q0 412 230.5 638t609.5 226q252 0 449 -73l20 -211q-205 121 -475 121q-307 0 -474 -182.5t-167 -518.5q0 -297 170 -471t471 -174q211 0 487 115l-53 -205q-199 -68 -387 -74q119 -66 119 -178q0 -102 -71.5 -161.5t-192.5 -59.5q-76 0 -150 24l-37 152 q113 -39 170 -39q100 0 101 84q0 94 -168 197q-295 49 -473.5 250.5t-178.5 539.5z" />
<glyph unicode="&#xc8;" horiz-adv-x="1251" d="M182 0v1599h899l17 -167h-733v-506h632l15 -168h-647v-590h811l-19 -168h-975zM279 2030h219l239 -314h-172z" />
<glyph unicode="&#xc9;" horiz-adv-x="1251" d="M182 0v1599h899l17 -167h-733v-506h632l15 -168h-647v-590h811l-19 -168h-975zM571 1716l242 314h217l-287 -314h-172z" />
<glyph unicode="&#xca;" horiz-adv-x="1251" d="M182 0v1599h899l17 -167h-733v-506h632l15 -168h-647v-590h811l-19 -168h-975zM305 1716l246 314h180l244 -314h-174l-160 180l-160 -180h-176z" />
<glyph unicode="&#xcb;" horiz-adv-x="1251" d="M182 0v1599h899l17 -167h-733v-506h632l15 -168h-647v-590h811l-19 -168h-975zM311 1869q0 48 35 80.5t84 32.5q47 0 82 -32.5t35 -80.5t-35 -81t-82 -33q-49 0 -84 33t-35 81zM735 1869q0 48 35 80.5t84 32.5t84 -32.5t35 -80.5t-35 -81t-84 -33t-84 33t-35 81z" />
<glyph unicode="&#xcc;" horiz-adv-x="548" d="M-51 2030h217l240 -314h-173zM182 0v1599h187v-1599h-187z" />
<glyph unicode="&#xcd;" horiz-adv-x="548" d="M164 1716l239 314h218l-285 -314h-172zM182 0v1599h187v-1599h-187z" />
<glyph unicode="&#xce;" horiz-adv-x="548" d="M-51 1716l244 314h182l241 -314h-174l-157 180l-160 -180h-176zM182 0v1599h187v-1599h-187z" />
<glyph unicode="&#xcf;" horiz-adv-x="548" d="M-53 1869q0 48 33.5 80.5t85.5 32.5q47 0 80.5 -32.5t33.5 -80.5t-33.5 -81t-80.5 -33q-51 0 -85 33t-34 81zM182 0v1599h187v-1599h-187zM371 1869q0 48 33.5 80.5t83 32.5t84 -32.5t34.5 -80.5t-34.5 -81t-84 -33t-83 33t-33.5 81z" />
<glyph unicode="&#xd0;" horiz-adv-x="1699" d="M43 719v162h182v718h424q455 0 699.5 -207.5t244.5 -590.5t-244.5 -592t-699.5 -209h-424v719h-182zM410 164h239q752 0 752 636t-752 636h-239v-555h464v-162h-464v-555z" />
<glyph unicode="&#xd1;" horiz-adv-x="1654" d="M182 0v1599h164l946 -1284v1284h181v-1599h-164l-947 1284v-1284h-180zM483 1710q2 25 10.5 53.5t25 62.5t42 58.5t66.5 43t92 18.5q70 0 186 -54q74 -35 101 -34q35 0 52 21.5t29 68.5h160q-4 -37 -15 -70t-36 -75t-73 -66.5t-117 -24.5q-84 0 -197 55q-66 33 -89.5 33 t-37.5 -14t-22.5 -29.5t-16.5 -46.5h-160z" />
<glyph unicode="&#xd2;" horiz-adv-x="1851" d="M106 800q0 378 227.5 607t594.5 229q362 0 589.5 -229t227.5 -607t-227.5 -607.5t-589.5 -229.5q-367 0 -594.5 229.5t-227.5 607.5zM299 799.5q0 -314.5 171 -493.5t456.5 -179t455.5 179t170 493.5t-170 494t-455.5 179.5t-456.5 -179.5t-171 -494zM633 2030h217 l240 -314h-172z" />
<glyph unicode="&#xd3;" horiz-adv-x="1851" d="M106 800q0 378 227.5 607t594.5 229q362 0 589.5 -229t227.5 -607t-227.5 -607.5t-589.5 -229.5q-367 0 -594.5 229.5t-227.5 607.5zM299 799.5q0 -314.5 171 -493.5t456.5 -179t455.5 179t170 493.5t-170 494t-455.5 179.5t-456.5 -179.5t-171 -494zM825 1716l242 314 h217l-287 -314h-172z" />
<glyph unicode="&#xd4;" horiz-adv-x="1851" d="M106 800q0 378 227.5 607t594.5 229q362 0 589.5 -229t227.5 -607t-227.5 -607.5t-589.5 -229.5q-367 0 -594.5 229.5t-227.5 607.5zM299 799.5q0 -314.5 171 -493.5t456.5 -179t455.5 179t170 493.5t-170 494t-455.5 179.5t-456.5 -179.5t-171 -494zM616 1716l246 314 h180l244 -314h-174l-160 180l-159 -180h-177z" />
<glyph unicode="&#xd5;" horiz-adv-x="1851" d="M106 800q0 378 227.5 607t594.5 229q362 0 589.5 -229t227.5 -607t-227.5 -607.5t-589.5 -229.5q-367 0 -594.5 229.5t-227.5 607.5zM299 799.5q0 -314.5 171 -493.5t456.5 -179t455.5 179t170 493.5t-170 494t-455.5 179.5t-456.5 -179.5t-171 -494zM561 1739 q2 27 9.5 54.5t24.5 62t42 59t65.5 43t92.5 18.5q72 0 188 -53q74 -35 100 -35q35 0 52.5 21.5t29.5 68.5h160q-4 -37 -15.5 -69.5t-36 -74.5t-72.5 -67.5t-118 -25.5q-84 0 -196 57q-66 33 -89.5 33t-39 -14.5t-22.5 -29.5t-15 -48h-160z" />
<glyph unicode="&#xd6;" horiz-adv-x="1851" d="M106 800q0 378 227.5 607t594.5 229q362 0 589.5 -229t227.5 -607t-227.5 -607.5t-589.5 -229.5q-367 0 -594.5 229.5t-227.5 607.5zM299 799.5q0 -314.5 171 -493.5t456.5 -179t455.5 179t170 493.5t-170 494t-455.5 179.5t-456.5 -179.5t-171 -494zM610 1869 q0 48 35 80.5t84 32.5q47 0 82 -32.5t35 -80.5t-35 -81t-82 -33q-49 0 -84 33t-35 81zM1034 1869q0 48 35 80.5t84 32.5t84 -32.5t35 -80.5t-35 -81t-84 -33t-84 33t-35 81z" />
<glyph unicode="&#xd7;" d="M70 496l336 335l-336 336l106 111l338 -338l338 338l106 -111l-337 -336l337 -335l-106 -109l-338 338l-338 -338z" />
<glyph unicode="&#xd8;" horiz-adv-x="1851" d="M106 801q0 377 227.5 606t594.5 229q274 0 483 -141l119 141h205l-203 -245q213 -229 213 -590q0 -379 -227.5 -608.5t-589.5 -229.5q-279 0 -482 135l-110 -135h-207l199 238q-222 225 -222 600zM299 801q0 -285 143 -463l858 1026q-156 109 -372 109 q-287 0 -458 -179.5t-171 -492.5zM559 229q154 -102 369 -102q285 0 454.5 179t169.5 495q0 279 -137 452z" />
<glyph unicode="&#xd9;" horiz-adv-x="1640" d="M172 563v1036h182v-995q0 -240 100.5 -359.5t325.5 -119.5q256 0 496 141v1333h182v-1599h-182v106q-219 -143 -496 -143q-301 0 -454.5 154.5t-153.5 445.5zM498 2030h217l239 -314h-172z" />
<glyph unicode="&#xda;" horiz-adv-x="1640" d="M172 563v1036h182v-995q0 -240 100.5 -359.5t325.5 -119.5q256 0 496 141v1333h182v-1599h-182v106q-219 -143 -496 -143q-301 0 -454.5 154.5t-153.5 445.5zM741 1716l242 314h217l-287 -314h-172z" />
<glyph unicode="&#xdb;" horiz-adv-x="1640" d="M172 563v1036h182v-995q0 -240 100.5 -359.5t325.5 -119.5q256 0 496 141v1333h182v-1599h-182v106q-219 -143 -496 -143q-301 0 -454.5 154.5t-153.5 445.5zM502 1716l243 314h183l241 -314h-174l-159 180l-158 -180h-176z" />
<glyph unicode="&#xdc;" horiz-adv-x="1640" d="M172 563v1036h182v-995q0 -240 100.5 -359.5t325.5 -119.5q256 0 496 141v1333h182v-1599h-182v106q-219 -143 -496 -143q-301 0 -454.5 154.5t-153.5 445.5zM502 1869q0 48 33.5 80.5t82.5 32.5t83 -32.5t34 -80.5t-33.5 -81t-83.5 -33q-49 0 -82.5 33t-33.5 81z M926 1869q0 48 33.5 80.5t83 32.5t84 -32.5t34.5 -80.5t-34.5 -81t-84 -33t-83 33t-33.5 81z" />
<glyph unicode="&#xdd;" horiz-adv-x="1419" d="M43 1599h203l461 -655l467 655h202l-575 -811v-788h-185v788zM637 1716l240 314h217l-285 -314h-172z" />
<glyph unicode="&#xde;" horiz-adv-x="1226" d="M182 0v1599h187v-333h157q616 0 617 -445q0 -449 -617 -448h-157v-373h-187zM369 530h157q217 0 320.5 66t103.5 225q0 156 -104.5 221.5t-319.5 65.5h-157v-578z" />
<glyph unicode="&#xdf;" horiz-adv-x="1415" d="M162 0v1161q0 248 120.5 382t340.5 134q166 0 280.5 -82t114.5 -231q0 -61 -21.5 -115.5t-45 -88.5t-72.5 -87q-45 -51 -61.5 -73.5t-33 -58.5t-16.5 -73q0 -78 48 -118.5t161 -87.5q178 -72 261 -154t83 -211q0 -145 -100.5 -234.5t-288.5 -89.5q-199 0 -350 93l-13 186 q184 -123 363 -123q217 0 217 168q0 68 -54.5 116t-197.5 103q-150 57 -227.5 130t-77.5 202q0 57 23.5 115.5t50 93.5t77.5 98q57 63 78 104t21 101q0 84 -60.5 128t-163.5 44q-150 0 -215 -92t-65 -279v-1161h-176z" />
<glyph unicode="&#xe0;" horiz-adv-x="1071" d="M96 283q0 127 86 203.5t250 129.5l313 103v61q0 111 -52 157t-185 46q-156 0 -344 -86l43 197q131 45 299 45q68 0 122 -6.5t112.5 -29t95 -60t61.5 -104.5t25 -159v-780h-177v86q-152 -113 -333 -113q-139 0 -227.5 76t-88.5 234zM246 1597h217l239 -313h-172zM283 283 q0 -168 163 -168q152 0 299 112v348l-227 -73q-117 -39 -176 -88t-59 -131z" />
<glyph unicode="&#xe1;" horiz-adv-x="1071" d="M96 283q0 127 86 203.5t250 129.5l313 103v61q0 111 -52 157t-185 46q-156 0 -344 -86l43 197q131 45 299 45q68 0 122 -6.5t112.5 -29t95 -60t61.5 -104.5t25 -159v-780h-177v86q-152 -113 -333 -113q-139 0 -227.5 76t-88.5 234zM283 283q0 -168 163 -168 q152 0 299 112v348l-227 -73q-117 -39 -176 -88t-59 -131zM481 1284l242 313h217l-287 -313h-172z" />
<glyph unicode="&#xe2;" horiz-adv-x="1071" d="M96 283q0 127 86 203.5t250 129.5l313 103v61q0 111 -52 157t-185 46q-156 0 -344 -86l43 197q131 45 299 45q68 0 122 -6.5t112.5 -29t95 -60t61.5 -104.5t25 -159v-780h-177v86q-152 -113 -333 -113q-139 0 -227.5 76t-88.5 234zM215 1284l246 313h180l244 -313h-176 l-158 180l-160 -180h-176zM283 283q0 -168 163 -168q152 0 299 112v348l-227 -73q-117 -39 -176 -88t-59 -131z" />
<glyph unicode="&#xe3;" horiz-adv-x="1071" d="M96 283q0 127 86 203.5t250 129.5l313 103v61q0 111 -52 157t-185 46q-156 0 -344 -86l43 197q131 45 299 45q68 0 122 -6.5t112.5 -29t95 -60t61.5 -104.5t25 -159v-780h-177v86q-152 -113 -333 -113q-139 0 -227.5 76t-88.5 234zM170 1327q2 25 9 53.5t24.5 62.5 t42 59.5t65.5 43t92 17.5q72 0 189 -54q72 -35 100 -34q35 0 52.5 21.5t29.5 68.5h160q-4 -35 -15.5 -69t-36 -76t-72.5 -66.5t-118 -24.5q-84 0 -196 55q-66 33 -89.5 33t-39 -14t-22.5 -28.5t-15 -47.5h-160zM283 283q0 -168 163 -168q152 0 299 112v348l-227 -73 q-117 -39 -176 -88t-59 -131z" />
<glyph unicode="&#xe4;" horiz-adv-x="1071" d="M96 283q0 127 86 203.5t250 129.5l313 103v61q0 111 -52 157t-185 46q-156 0 -344 -86l43 197q131 45 299 45q68 0 122 -6.5t112.5 -29t95 -60t61.5 -104.5t25 -159v-780h-177v86q-152 -113 -333 -113q-139 0 -227.5 76t-88.5 234zM223 1458q0 47 35 81t84 34 q47 0 82 -34t35 -81t-35 -81t-82 -34q-49 0 -84 34t-35 81zM283 283q0 -168 163 -168q152 0 299 112v348l-227 -73q-117 -39 -176 -88t-59 -131zM647 1458q0 47 35 81t84 34t84 -34t35 -81t-35 -81t-84 -34t-84 34t-35 81z" />
<glyph unicode="&#xe5;" horiz-adv-x="1071" d="M96 283q0 127 86 203.5t250 129.5l313 103v61q0 111 -52 157t-185 46q-156 0 -344 -86l43 197q131 45 299 45q68 0 122 -6.5t112.5 -29t95 -60t61.5 -104.5t25 -159v-780h-177v86q-152 -113 -333 -113q-139 0 -227.5 76t-88.5 234zM283 283q0 -168 163 -168 q152 0 299 112v348l-227 -73q-117 -39 -176 -88t-59 -131zM387 1470.5q0 81.5 56.5 138t135 56.5t136 -56.5t57.5 -138.5q0 -80 -56.5 -135t-137.5 -55q-78 0 -134.5 54.5t-56.5 136zM481 1470.5q0 -45.5 28 -72t68.5 -26.5t70.5 27.5t30 70.5t-30 71t-70.5 28t-68.5 -26.5 t-28 -72z" />
<glyph unicode="&#xe6;" horiz-adv-x="1820" d="M96 283q0 127 86 203.5t250 129.5l311 103v61q0 111 -51 156t-186 45q-162 0 -342 -84l43 197q131 45 297 45q297 0 377 -168q145 168 374 168q233 0 346 -144.5t113 -404.5q0 -57 -4 -103h-778q6 -172 97 -263t261 -91q182 0 398 86l-66 -190q-143 -55 -334 -56 q-291 0 -430 187q-229 -186 -440 -187q-150 0 -236 75t-86 235zM279 283q0 -158 165 -158q162 0 347 151q-45 123 -46 285v14l-227 -73q-117 -39 -178 -88t-61 -131zM936 637h594q-8 346 -275 346q-141 0 -220 -100.5t-99 -245.5z" />
<glyph unicode="&#xe7;" horiz-adv-x="1089" d="M106 553q0 287 148.5 436.5t402.5 149.5q160 0 297 -35l41 -193q-160 70 -338 70q-176 0 -271 -108.5t-95 -319.5q0 -193 91 -306.5t275 -113.5q172 0 347 70l-56 -187q-98 -33 -239 -41q113 -70 112 -176q0 -102 -70.5 -161.5t-193.5 -59.5q-76 0 -147 27l-37 149 q111 -39 170 -39q98 0 98 84q0 100 -184 205q-168 53 -259.5 198.5t-91.5 350.5z" />
<glyph unicode="&#xe8;" horiz-adv-x="1179" d="M106 561q0 242 137.5 410t370.5 168t346 -144.5t113 -404.5q0 -57 -4 -103h-778q6 -172 96 -263t262 -91q201 0 393 78l-61 -186q-131 -51 -334 -52q-268 0 -404.5 154.5t-136.5 433.5zM289 1597h217l239 -313h-172zM295 637h594q-4 346 -275 346q-141 0 -220 -100.5 t-99 -245.5z" />
<glyph unicode="&#xe9;" horiz-adv-x="1179" d="M106 561q0 242 137.5 410t370.5 168t346 -144.5t113 -404.5q0 -57 -4 -103h-778q6 -172 96 -263t262 -91q201 0 393 78l-61 -186q-131 -51 -334 -52q-268 0 -404.5 154.5t-136.5 433.5zM295 637h594q-4 346 -275 346q-141 0 -220 -100.5t-99 -245.5zM524 1284l242 313 h217l-287 -313h-172z" />
<glyph unicode="&#xea;" horiz-adv-x="1179" d="M106 561q0 242 137.5 410t370.5 168t346 -144.5t113 -404.5q0 -57 -4 -103h-778q6 -172 96 -263t262 -91q201 0 393 78l-61 -186q-131 -51 -334 -52q-268 0 -404.5 154.5t-136.5 433.5zM295 637h594q-4 346 -275 346q-141 0 -220 -100.5t-99 -245.5zM297 1284l246 313 h180l242 -313h-174l-158 180l-160 -180h-176z" />
<glyph unicode="&#xeb;" horiz-adv-x="1179" d="M106 561q0 242 137.5 410t370.5 168t346 -144.5t113 -404.5q0 -57 -4 -103h-778q6 -172 96 -263t262 -91q201 0 393 78l-61 -186q-131 -51 -334 -52q-268 0 -404.5 154.5t-136.5 433.5zM295 637h594q-4 346 -275 346q-141 0 -220 -100.5t-99 -245.5zM307 1458q0 47 35 81 t84 34q47 0 82 -34t35 -81t-35 -81t-82 -34q-49 0 -84 34t-35 81zM731 1458q0 47 35 81t84 34t83 -34t34 -81t-34 -81t-83 -34t-84 34t-35 81z" />
<glyph unicode="&#xec;" horiz-adv-x="495" d="M-61 1597h217l239 -313h-172zM162 0v1114h174v-1114h-174z" />
<glyph unicode="&#xed;" horiz-adv-x="495" d="M156 1284l239 313h217l-284 -313h-172zM162 0v1114h174v-1114h-174z" />
<glyph unicode="&#xee;" horiz-adv-x="495" d="M-86 1284l246 313h180l244 -313h-174l-160 180l-160 -180h-176zM162 0v1114h174v-1114h-174z" />
<glyph unicode="&#xef;" horiz-adv-x="495" d="M-74 1458q0 47 35 81t84 34q47 0 82 -34t35 -81t-35 -81t-82 -34q-49 0 -84 34t-35 81zM162 0v1114h174v-1114h-174zM350 1458q0 47 35 81t84 34t84 -34t35 -81t-35 -81t-84 -34t-84 34t-35 81z" />
<glyph unicode="&#xf0;" horiz-adv-x="1306" d="M106 559q0 266 146.5 425t402.5 159q129 0 234 -53q-78 131 -217 260l-234 -109l-100 117l211 94q-199 152 -244 178h266q10 -4 131 -106l203 96l101 -115l-183 -86q369 -348 377 -860q0 -266 -145.5 -426t-399.5 -160q-256 0 -402.5 160t-146.5 426zM293 559 q0 -209 95 -317.5t267 -108.5q170 0 266.5 108.5t96.5 317.5q0 205 -97.5 315.5t-265.5 110.5q-172 0 -267 -109.5t-95 -316.5z" />
<glyph unicode="&#xf1;" horiz-adv-x="1185" d="M162 0v1114h174v-100q147 125 334 125q199 0 277.5 -101.5t78.5 -304.5v-733h-176v731q0 135 -38 195.5t-155 60.5q-172 0 -321 -137v-850h-174zM213 1327q2 25 9 53.5t24.5 62.5t42 59.5t65.5 43t92 17.5q72 0 189 -54q72 -35 100 -34q35 0 52.5 21.5t29.5 68.5h160 q-4 -35 -15.5 -69t-36 -76t-72.5 -66.5t-118 -24.5q-84 0 -198 55q-63 33 -87 33t-39.5 -14t-22.5 -28.5t-15 -47.5h-160z" />
<glyph unicode="&#xf2;" horiz-adv-x="1306" d="M106 559q0 264 146.5 422t402.5 158q254 0 399.5 -158t145.5 -422q0 -266 -145.5 -426t-399.5 -160q-256 0 -402.5 160t-146.5 426zM293 559q0 -209 95 -317.5t267 -108.5q170 0 266.5 108.5t96.5 317.5q0 205 -96.5 314.5t-266.5 109.5q-172 0 -267 -108.5t-95 -315.5z M346 1597h217l242 -313h-172z" />
<glyph unicode="&#xf3;" horiz-adv-x="1306" d="M106 559q0 264 146.5 422t402.5 158q254 0 399.5 -158t145.5 -422q0 -266 -145.5 -426t-399.5 -160q-256 0 -402.5 160t-146.5 426zM293 559q0 -209 95 -317.5t267 -108.5q170 0 266.5 108.5t96.5 317.5q0 205 -96.5 314.5t-266.5 109.5q-172 0 -267 -108.5t-95 -315.5z M569 1284l242 313h217l-287 -313h-172z" />
<glyph unicode="&#xf4;" horiz-adv-x="1306" d="M106 559q0 264 146.5 422t402.5 158q254 0 399.5 -158t145.5 -422q0 -266 -145.5 -426t-399.5 -160q-256 0 -402.5 160t-146.5 426zM293 559q0 -209 95 -317.5t267 -108.5q170 0 266.5 108.5t96.5 317.5q0 205 -96.5 314.5t-266.5 109.5q-172 0 -267 -108.5t-95 -315.5z M319 1284l246 313h180l244 -313h-174l-160 180l-157 -180h-179z" />
<glyph unicode="&#xf5;" horiz-adv-x="1306" d="M106 559q0 264 146.5 422t402.5 158q254 0 399.5 -158t145.5 -422q0 -266 -145.5 -426t-399.5 -160q-256 0 -402.5 160t-146.5 426zM276 1327q2 25 10.5 53.5t26 62.5t42 59.5t65.5 43t92 17.5q72 0 186 -54q74 -35 103 -34q33 0 50 21.5t30 68.5h159q-4 -35 -14 -69 t-35.5 -76t-74 -66.5t-115.5 -24.5q-84 0 -199 55q-66 33 -89.5 33t-37.5 -14t-22.5 -28.5t-16.5 -47.5h-160zM293 559q0 -209 95 -317.5t267 -108.5q170 0 266.5 108.5t96.5 317.5q0 205 -96.5 314.5t-266.5 109.5q-172 0 -267 -108.5t-95 -315.5z" />
<glyph unicode="&#xf6;" horiz-adv-x="1306" d="M106 559q0 264 146.5 422t402.5 158q254 0 399.5 -158t145.5 -422q0 -266 -145.5 -426t-399.5 -160q-256 0 -402.5 160t-146.5 426zM293 559q0 -209 95 -317.5t267 -108.5q170 0 266.5 108.5t96.5 317.5q0 205 -96.5 314.5t-266.5 109.5q-172 0 -267 -108.5t-95 -315.5z M332 1458q0 47 33.5 81t83.5 34q49 0 82.5 -34t33.5 -81t-33.5 -81t-82.5 -34t-83 34t-34 81zM756 1458q0 47 33.5 81t83 34t84 -34t34.5 -81t-34.5 -81t-84 -34t-83 34t-33.5 81z" />
<glyph unicode="&#xf7;" d="M76 778v154h878v-154h-878zM406 479q0 47 34.5 82t83.5 35t84 -35t35 -82q0 -45 -36 -79.5t-83 -34.5t-82.5 34.5t-35.5 79.5zM406 1229q0 47 34.5 80.5t83.5 33.5t84 -33.5t35 -80.5q0 -45 -36 -80t-83 -35t-82.5 35t-35.5 80z" />
<glyph unicode="&#xf8;" horiz-adv-x="1306" d="M102 -27l138 174q-133 156 -134 412q0 264 146.5 422t402.5 158q172 0 299 -76l62 76h190l-137 -174q131 -154 131 -406q0 -266 -145.5 -426t-399.5 -160q-174 0 -301 78l-59 -78h-193zM293 559q0 -168 57 -266l502 639q-82 51 -197 51q-172 0 -267 -108.5t-95 -315.5z M459 182q82 -49 196 -49q170 0 266.5 108.5t96.5 317.5q0 156 -62 262z" />
<glyph unicode="&#xf9;" horiz-adv-x="1175" d="M152 381v733h176v-731q0 -135 36.5 -195.5t153.5 -60.5q172 0 324 137v850h174v-1114h-174v100q-150 -127 -334 -127q-201 0 -278.5 102.5t-77.5 305.5zM297 1599h217l242 -313h-172z" />
<glyph unicode="&#xfa;" horiz-adv-x="1175" d="M152 381v733h176v-731q0 -135 36.5 -195.5t153.5 -60.5q172 0 324 137v850h174v-1114h-174v100q-150 -127 -334 -127q-201 0 -278.5 102.5t-77.5 305.5zM506 1286l239 313h218l-285 -313h-172z" />
<glyph unicode="&#xfb;" horiz-adv-x="1175" d="M152 381v733h176v-731q0 -135 36.5 -195.5t153.5 -60.5q172 0 324 137v850h174v-1114h-174v100q-150 -127 -334 -127q-201 0 -278.5 102.5t-77.5 305.5zM248 1286l244 313h182l241 -313h-174l-157 180l-160 -180h-176z" />
<glyph unicode="&#xfc;" horiz-adv-x="1175" d="M152 381v733h176v-731q0 -135 36.5 -195.5t153.5 -60.5q172 0 324 137v850h174v-1114h-174v100q-150 -127 -334 -127q-201 0 -278.5 102.5t-77.5 305.5zM252 1458q0 47 33.5 81t85.5 34q47 0 80.5 -34t33.5 -81t-33.5 -81t-80.5 -34q-51 0 -85 34t-34 81zM676 1458 q0 47 33.5 81t84 34t84 -34t33.5 -81t-33.5 -81t-84 -34t-84 34t-33.5 81z" />
<glyph unicode="&#xfd;" horiz-adv-x="1128" d="M33 1114h192l344 -858l344 858h185l-451 -1102q-127 -309 -323 -463l-177 78q129 88 194 167t134 235zM510 1284l240 313h217l-285 -313h-172z" />
<glyph unicode="&#xfe;" horiz-adv-x="1232" d="M162 -428v2058h176v-602q137 111 324 111q238 0 351 -148.5t113 -421.5q0 -115 -27.5 -216t-90 -189t-175 -139.5t-268.5 -51.5q-127 0 -227 35v-436h-176zM338 166q102 -35 227 -35q207 0 293 124t86 314q0 414 -282 414q-203 0 -324 -135v-682z" />
<glyph unicode="&#xff;" horiz-adv-x="1128" d="M33 1114h192l344 -858l344 858h185l-451 -1102q-127 -309 -323 -463l-177 78q129 88 194 167t134 235zM252 1458q0 47 33.5 81t85.5 34q47 0 80.5 -34t33.5 -81t-33.5 -81t-80.5 -34q-51 0 -85 34t-34 81zM676 1458q0 47 33.5 81t84 34t84 -34t33.5 -81t-33.5 -81 t-84 -34t-84 34t-33.5 81z" />
<glyph unicode="&#x152;" horiz-adv-x="2623" d="M106 800q0 378 227.5 607t594.5 229q403 0 626 -276v239h900l14 -167h-731v-506h633l12 -168h-645v-590h811l-19 -168h-975v242q-223 -279 -626 -279q-367 0 -594.5 229.5t-227.5 607.5zM299 799.5q0 -314.5 171 -493.5t456.5 -179t455.5 179t170 493.5t-170 494 t-455.5 179.5t-456.5 -179.5t-171 -494z" />
<glyph unicode="&#x153;" horiz-adv-x="2091" d="M106 559q0 264 146.5 422t402.5 158q315 0 455 -236q135 236 414 236q233 0 345.5 -144.5t112.5 -404.5q0 -57 -4 -103h-778q6 -172 96 -263t263 -91q188 0 399 84l-68 -188q-141 -55 -334 -56q-322 0 -452 230q-141 -229 -449 -230q-256 0 -402.5 160t-146.5 426z M293 559q0 -209 95 -317.5t267 -108.5q170 0 266.5 108.5t96.5 317.5q0 205 -96.5 314.5t-266.5 109.5q-172 0 -267 -108.5t-95 -315.5zM1204 637h594q-4 346 -274 346q-141 0 -220.5 -100.5t-99.5 -245.5z" />
<glyph unicode="&#x178;" horiz-adv-x="1419" d="M43 1599h203l461 -655l467 655h202l-575 -811v-788h-185v788zM389 1830q0 48 35 81t84 33q47 0 81 -33t34 -81t-34 -81t-81 -33q-49 0 -84 33t-35 81zM813 1830q0 48 34 81t84 33t84 -33t34 -81t-34 -81t-84 -33t-84 33t-34 81z" />
<glyph unicode="&#x2c6;" horiz-adv-x="714" d="M14 1286l246 313h180l244 -313h-174l-160 180l-160 -180h-176z" />
<glyph unicode="&#x2dc;" horiz-adv-x="714" d="M-27 1335q2 27 10.5 54.5t26 62.5t42 59.5t65.5 43t92 18.5q70 0 186 -55q74 -35 103 -35q33 0 50 22.5t30 69.5h159q-4 -37 -14 -71t-35.5 -76t-74 -66.5t-115.5 -24.5q-84 0 -199 56q-66 33 -89.5 32.5t-37.5 -14.5t-22.5 -28.5t-16.5 -47.5h-160z" />
<glyph unicode="&#x3bc;" horiz-adv-x="1214" d="M174 -444v1558h176v-731q0 -135 38 -195.5t155 -60.5q172 0 321 137v850h174v-1114h-174v100q-147 -127 -334 -127q-106 0 -180 31v-448h-176z" />
<glyph unicode="&#x2000;" horiz-adv-x="1013" />
<glyph unicode="&#x2001;" horiz-adv-x="2029" />
<glyph unicode="&#x2002;" horiz-adv-x="1013" />
<glyph unicode="&#x2003;" horiz-adv-x="2029" />
<glyph unicode="&#x2004;" horiz-adv-x="675" />
<glyph unicode="&#x2005;" horiz-adv-x="505" />
<glyph unicode="&#x2006;" horiz-adv-x="337" />
<glyph unicode="&#x2007;" horiz-adv-x="337" />
<glyph unicode="&#x2008;" horiz-adv-x="251" />
<glyph unicode="&#x2009;" horiz-adv-x="405" />
<glyph unicode="&#x200a;" horiz-adv-x="112" />
<glyph unicode="&#x2010;" horiz-adv-x="794" d="M59 649v162h674v-162h-674z" />
<glyph unicode="&#x2011;" horiz-adv-x="794" d="M59 649v162h674v-162h-674z" />
<glyph unicode="&#x2012;" horiz-adv-x="794" d="M59 649v162h674v-162h-674z" />
<glyph unicode="&#x2013;" horiz-adv-x="1097" d="M-2 653v154h1104v-154h-1104z" />
<glyph unicode="&#x2014;" horiz-adv-x="2146" d="M-2 653v154h2156v-154h-2156z" />
<glyph unicode="&#x2018;" horiz-adv-x="413" d="M66 1116l137 520h157l-90 -520h-204z" />
<glyph unicode="&#x2019;" horiz-adv-x="413" d="M53 1116l90 520h207l-137 -520h-160z" />
<glyph unicode="&#x201a;" horiz-adv-x="413" d="M53 -289l90 520h207l-137 -520h-160z" />
<glyph unicode="&#x201c;" horiz-adv-x="784" d="M66 1116l137 520h157l-90 -520h-204zM434 1116l137 520h160l-90 -520h-207z" />
<glyph unicode="&#x201d;" horiz-adv-x="784" d="M53 1116l90 520h207l-137 -520h-160zM424 1116l90 520h207l-137 -520h-160z" />
<glyph unicode="&#x201e;" horiz-adv-x="784" d="M53 -289l90 520h207l-137 -520h-160zM424 -289l90 520h207l-137 -520h-160z" />
<glyph unicode="&#x2022;" horiz-adv-x="765" d="M121 836.5q0 107.5 76.5 185.5t184 78t185.5 -78t78 -185.5t-78 -185.5t-185.5 -78t-184 78t-76.5 185.5z" />
<glyph unicode="&#x2026;" horiz-adv-x="1687" d="M66 100q0 57 38.5 95t95 38t95.5 -37.5t39 -95.5q0 -51 -40 -90t-94.5 -39t-94 40t-39.5 89zM709 100q0 57 39.5 95t96 38t95.5 -37.5t39 -95.5q0 -51 -40 -90t-94 -39t-95 40t-41 89zM1356 100q0 57 39 95t95 38t95 -37.5t39 -95.5q0 -51 -40 -90t-94 -39t-94 40t-40 89 z" />
<glyph unicode="&#x202f;" horiz-adv-x="405" />
<glyph unicode="&#x2039;" horiz-adv-x="655" d="M82 559l317 555h189l-312 -555l312 -559h-189z" />
<glyph unicode="&#x203a;" horiz-adv-x="655" d="M55 0l310 559l-310 555h189l319 -555l-319 -559h-189z" />
<glyph unicode="&#x205f;" horiz-adv-x="505" />
<glyph unicode="&#x20ac;" horiz-adv-x="1265" d="M45 604v154h78v73v74h-78v154h98q53 266 220 421.5t438 155.5q211 0 362 -57l15 -186q-176 78 -377 77q-193 0 -305.5 -114.5t-155.5 -296.5h713l-31 -154h-707v-74v-73h670l-35 -154h-618q68 -473 469 -473q211 0 377 74l-17 -185q-154 -57 -360 -57q-162 0 -285 51.5 t-197.5 143.5t-118.5 201.5t-65 244.5h-90z" />
<glyph unicode="&#x2122;" horiz-adv-x="1970" d="M43 1497l31 131h710l29 -131h-307v-739h-156v739h-307zM895 758v870h149l324 -561l320 561h151v-870h-153v581l-318 -555l-321 555v-581h-152z" />
<glyph unicode="&#xe000;" horiz-adv-x="1115" d="M0 1115h1115v-1115h-1115v1115z" />
<glyph unicode="&#xfb01;" horiz-adv-x="1183" d="M33 956l114 158h60v135q0 387 342 387q106 0 219 -32v-166q-119 51 -219 51q-88 0 -127 -55.5t-39 -184.5v-135h272v-158h-272v-956h-176v956h-174zM831 1534q0 45 30 73.5t77 28.5q45 0 75.5 -29.5t30.5 -72.5t-30.5 -72.5t-75.5 -29.5q-47 0 -77 29.5t-30 72.5zM850 0 v1114h174v-1114h-174z" />
<glyph unicode="&#xfb02;" horiz-adv-x="1177" d="M33 956l114 158h60v135q0 387 342 387q106 0 219 -32v-166q-119 51 -219 51q-88 0 -127 -55.5t-39 -184.5v-135h272v-158h-272v-956h-176v956h-174zM844 0v1630h174v-1630h-174z" />
<glyph unicode="&#xfb03;" horiz-adv-x="1923" d="M1570 1534q0 45 30 73.5t77 28.5q45 0 75.5 -29.5t30.5 -72.5t-30.5 -72.5t-75.5 -29.5q-47 0 -77 29.5t-30 72.5zM1589 0v1114h174v-1114h-174zM748 956l114 158h60v135q0 387 342 387q106 0 219 -32v-166q-119 51 -219 51q-88 0 -127 -55.5t-39 -184.5v-135h272v-158 h-272v-956h-176v956h-174zM33 956l114 158h60v135q0 387 342 387q106 0 219 -32v-166q-119 51 -219 51q-88 0 -127 -55.5t-39 -184.5v-135h272v-158h-272v-956h-176v956h-174z" />
<glyph unicode="&#xfb04;" horiz-adv-x="1923" d="M1589 0v1630h174v-1630h-174zM748 956l114 158h60v135q0 387 342 387q106 0 219 -32v-166q-119 51 -219 51q-88 0 -127 -55.5t-39 -184.5v-135h272v-158h-272v-956h-176v956h-174zM33 956l114 158h60v135q0 387 342 387q106 0 219 -32v-166q-119 51 -219 51 q-88 0 -127 -55.5t-39 -184.5v-135h272v-158h-272v-956h-176v956h-174z" />
</font>
</defs>
</svg>
