<svg xmlns="http://www.w3.org/2000/svg" width="24" height="25" fill="none">
      <g clipPath="url(#a)">
        <path
          fill="#fff"
          d="M8.04 12.487c-.003-2.209 1.766-4.003 3.952-4.007 2.186-.005 3.962 1.783 3.967 3.992.004 2.209-1.765 4.003-3.952 4.007-2.185.005-3.962-1.783-3.966-3.992Zm-2.138.004c.006 3.403 2.742 6.157 6.11 6.15 3.367-.007 6.093-2.77 6.087-6.174-.007-3.401-2.743-6.156-6.112-6.15-3.366.007-6.092 2.772-6.085 6.174Zm11-6.426a1.434 1.434 0 0 0 1.427 1.437 1.434 1.434 0 0 0 1.423-1.442 1.432 1.432 0 0 0-1.428-1.437 1.432 1.432 0 0 0-1.422 1.442Zm-9.683 16.19c-1.158-.05-1.786-.245-2.205-.408a3.703 3.703 0 0 1-1.368-.895 3.746 3.746 0 0 1-.89-1.377c-.163-.424-.359-1.058-.414-2.228-.058-1.266-.072-1.645-.077-4.85-.007-3.202.004-3.582.06-4.847.049-1.17.243-1.806.403-2.228.215-.562.472-.961.886-1.383.415-.42.81-.68 1.364-.9.419-.165 1.047-.361 2.205-.417 1.252-.06 1.628-.073 4.798-.079 3.171-.006 3.547.005 4.8.06 1.157.052 1.786.246 2.205.409a3.67 3.67 0 0 1 1.367.896c.416.419.675.816.892 1.378.163.421.358 1.057.412 2.226.06 1.266.073 1.645.08 4.848.005 3.205-.006 3.584-.061 4.85-.051 1.17-.243 1.805-.404 2.228a3.73 3.73 0 0 1-.886 1.382c-.415.42-.81.681-1.365.9-.418.165-1.047.362-2.204.417-1.252.06-1.627.074-4.799.08-3.17.005-3.545-.006-4.799-.062ZM7.081.563c-1.264.06-2.127.264-2.881.563-.78.308-1.443.72-2.102 1.388A5.9 5.9 0 0 0 .732 4.64c-.291.764-.49 1.637-.546 2.915C.13 8.836.118 9.244.125 12.502c.005 3.259.02 3.668.08 4.948.06 1.276.262 2.148.558 2.91.304.79.712 1.457 1.374 2.124a5.809 5.809 0 0 0 2.106 1.38c.756.295 1.62.495 2.883.551 1.267.057 1.671.07 4.896.063 3.226-.006 3.63-.02 4.897-.081 1.264-.061 2.126-.266 2.88-.564a5.82 5.82 0 0 0 2.102-1.388 5.882 5.882 0 0 0 1.366-2.128c.292-.763.491-1.636.546-2.913.055-1.28.069-1.69.062-4.947-.006-3.259-.02-3.668-.08-4.946-.06-1.278-.263-2.15-.558-2.912a5.89 5.89 0 0 0-1.373-2.124 5.81 5.81 0 0 0-2.106-1.38C19 .8 18.138.6 16.874.545 15.607.487 15.203.474 11.977.48 8.752.487 8.348.501 7.08.563Z"
        />
      </g>
      <defs>
        <clipPath id="a">
          <path fill="#fff" d="M0 .48h24v24H0z" />
        </clipPath>
      </defs>
    </svg>