<svg xmlns="http://www.w3.org/2000/svg" width="24" height="25" fill="none">
    <g clipPath="url(#a)">
      <path
        fill="#fff"
        fillRule="evenodd"
        d="M16.833.48c0 .358 1.353 3.968 2.676 4.81v.001a5.93 5.93 0 0 0 3.199.93v4.125c-2.19 0-4.219-.684-5.875-1.847v8.387c0 4.187-3.484 7.594-7.77 7.594a7.847 7.847 0 0 1-4.453-1.376l-.003-.003c-2.003-1.375-3.315-3.648-3.315-6.217 0-4.187 3.487-7.595 7.771-7.595.356 0 .704.03 1.048.074v4.215a3.564 3.564 0 0 0-1.048-.162c-1.957 0-3.549 1.558-3.549 3.47 0 1.33.774 2.49 1.902 3.069a3.592 3.592 0 0 0 1.647.398c1.91 0 3.472-1.486 3.542-3.338L12.61.48h4.222Z"
        clipRule="evenodd"
      />
    </g>
    <defs>
      <clipPath id="a">
        <path fill="#fff" d="M0 .48h24v24H0z" />
      </clipPath>
    </defs>
  </svg>